%TF.GenerationSoftware,KiCad,Pcbnew,(6.0.0-rc1-dev-853-g5bbc2d74a)*%
%TF.CreationDate,2018-11-17T03:51:27+01:00*%
%TF.ProjectId,VFD_Watch,5646445F57617463682E6B696361645F,rev?*%
%TF.SameCoordinates,Original*%
%TF.FileFunction,Soldermask,Bot*%
%TF.FilePolarity,Negative*%
%FSLAX46Y46*%
G04 Gerber Fmt 4.6, Leading zero omitted, Abs format (unit mm)*
G04 Created by KiCad (PCBNEW (6.0.0-rc1-dev-853-g5bbc2d74a)) date 2018 November 17, Saturday 03:51:27*
%MOMM*%
%LPD*%
G01*
G04 APERTURE LIST*
%ADD10C,0.050000*%
%ADD11C,0.150000*%
G04 APERTURE END LIST*
D10*
X93750000Y-117000000D02*
G75*
G02X92250000Y-118500000I-1500000J0D01*
G01*
X92250000Y-96250000D02*
G75*
G02X93750000Y-97750000I0J-1500000D01*
G01*
X88250000Y-96250000D02*
G75*
G02X86750000Y-94750000I0J1500000D01*
G01*
X87500000Y-120000000D02*
G75*
G02X89000000Y-118500000I1500000J0D01*
G01*
X89000000Y-128000000D02*
G75*
G02X87500000Y-126500000I0J1500000D01*
G01*
X154500000Y-126500000D02*
G75*
G02X153000000Y-128000000I-1500000J0D01*
G01*
X153000000Y-73000000D02*
G75*
G02X154500000Y-74500000I0J-1500000D01*
G01*
X86750000Y-74500000D02*
G75*
G02X88250000Y-73000000I1500000J0D01*
G01*
X87500000Y-120000000D02*
X87500000Y-126500000D01*
X92250000Y-118500000D02*
X89000000Y-118500000D01*
X93750000Y-97750000D02*
X93750000Y-117000000D01*
X88250000Y-96250000D02*
X92250000Y-96250000D01*
X86750000Y-76750000D02*
X86750000Y-94750000D01*
X86750000Y-74500000D02*
X86750000Y-76750000D01*
X153000000Y-73000000D02*
X88250000Y-73000000D01*
X154500000Y-74500000D02*
X154500000Y-126500000D01*
X89000000Y-128000000D02*
X153000000Y-128000000D01*
D11*
G36*
X140495039Y-124768086D02*
X140495042Y-124768087D01*
X140495043Y-124768087D01*
X140730669Y-124839563D01*
X140947823Y-124955634D01*
X141138160Y-125111840D01*
X141294366Y-125302177D01*
X141410437Y-125519331D01*
X141481913Y-125754957D01*
X141481914Y-125754961D01*
X141506048Y-126000000D01*
X141481914Y-126245039D01*
X141481913Y-126245042D01*
X141481913Y-126245043D01*
X141410437Y-126480669D01*
X141294366Y-126697823D01*
X141138160Y-126888160D01*
X140947823Y-127044366D01*
X140730669Y-127160437D01*
X140495043Y-127231913D01*
X140495042Y-127231913D01*
X140495039Y-127231914D01*
X140311409Y-127250000D01*
X129688591Y-127250000D01*
X129504961Y-127231914D01*
X129504958Y-127231913D01*
X129504957Y-127231913D01*
X129269331Y-127160437D01*
X129052177Y-127044366D01*
X128861840Y-126888160D01*
X128705634Y-126697823D01*
X128589563Y-126480669D01*
X128518087Y-126245043D01*
X128518087Y-126245042D01*
X128518086Y-126245039D01*
X128493952Y-126000000D01*
X128518086Y-125754961D01*
X128518087Y-125754957D01*
X128589563Y-125519331D01*
X128705634Y-125302177D01*
X128861840Y-125111840D01*
X129052177Y-124955634D01*
X129269331Y-124839563D01*
X129504957Y-124768087D01*
X129504958Y-124768087D01*
X129504961Y-124768086D01*
X129688591Y-124750000D01*
X140311409Y-124750000D01*
X140495039Y-124768086D01*
X140495039Y-124768086D01*
G37*
G36*
X114995039Y-124768086D02*
X114995042Y-124768087D01*
X114995043Y-124768087D01*
X115230669Y-124839563D01*
X115447823Y-124955634D01*
X115638160Y-125111840D01*
X115794366Y-125302177D01*
X115910437Y-125519331D01*
X115981913Y-125754957D01*
X115981914Y-125754961D01*
X116006048Y-126000000D01*
X115981914Y-126245039D01*
X115981913Y-126245042D01*
X115981913Y-126245043D01*
X115910437Y-126480669D01*
X115794366Y-126697823D01*
X115638160Y-126888160D01*
X115447823Y-127044366D01*
X115230669Y-127160437D01*
X114995043Y-127231913D01*
X114995042Y-127231913D01*
X114995039Y-127231914D01*
X114811409Y-127250000D01*
X104188591Y-127250000D01*
X104004961Y-127231914D01*
X104004958Y-127231913D01*
X104004957Y-127231913D01*
X103769331Y-127160437D01*
X103552177Y-127044366D01*
X103361840Y-126888160D01*
X103205634Y-126697823D01*
X103089563Y-126480669D01*
X103018087Y-126245043D01*
X103018087Y-126245042D01*
X103018086Y-126245039D01*
X102993952Y-126000000D01*
X103018086Y-125754961D01*
X103018087Y-125754957D01*
X103089563Y-125519331D01*
X103205634Y-125302177D01*
X103361840Y-125111840D01*
X103552177Y-124955634D01*
X103769331Y-124839563D01*
X104004957Y-124768087D01*
X104004958Y-124768087D01*
X104004961Y-124768086D01*
X104188591Y-124750000D01*
X114811409Y-124750000D01*
X114995039Y-124768086D01*
X114995039Y-124768086D01*
G37*
G36*
X152835443Y-124894194D02*
X153044728Y-124980883D01*
X153233085Y-125106739D01*
X153393261Y-125266915D01*
X153519117Y-125455272D01*
X153605806Y-125664557D01*
X153650000Y-125886734D01*
X153650000Y-126113266D01*
X153605806Y-126335443D01*
X153519117Y-126544728D01*
X153393261Y-126733085D01*
X153233085Y-126893261D01*
X153044728Y-127019117D01*
X152835443Y-127105806D01*
X152613266Y-127150000D01*
X152386734Y-127150000D01*
X152164557Y-127105806D01*
X151955272Y-127019117D01*
X151766915Y-126893261D01*
X151606739Y-126733085D01*
X151480883Y-126544728D01*
X151394194Y-126335443D01*
X151350000Y-126113266D01*
X151350000Y-125886734D01*
X151394194Y-125664557D01*
X151480883Y-125455272D01*
X151606739Y-125266915D01*
X151766915Y-125106739D01*
X151955272Y-124980883D01*
X152164557Y-124894194D01*
X152386734Y-124850000D01*
X152613266Y-124850000D01*
X152835443Y-124894194D01*
X152835443Y-124894194D01*
G37*
G36*
X89835443Y-124894194D02*
X90044728Y-124980883D01*
X90233085Y-125106739D01*
X90393261Y-125266915D01*
X90519117Y-125455272D01*
X90605806Y-125664557D01*
X90650000Y-125886734D01*
X90650000Y-126113266D01*
X90605806Y-126335443D01*
X90519117Y-126544728D01*
X90393261Y-126733085D01*
X90233085Y-126893261D01*
X90044728Y-127019117D01*
X89835443Y-127105806D01*
X89613266Y-127150000D01*
X89386734Y-127150000D01*
X89164557Y-127105806D01*
X88955272Y-127019117D01*
X88766915Y-126893261D01*
X88606739Y-126733085D01*
X88480883Y-126544728D01*
X88394194Y-126335443D01*
X88350000Y-126113266D01*
X88350000Y-125886734D01*
X88394194Y-125664557D01*
X88480883Y-125455272D01*
X88606739Y-125266915D01*
X88766915Y-125106739D01*
X88955272Y-124980883D01*
X89164557Y-124894194D01*
X89386734Y-124850000D01*
X89613266Y-124850000D01*
X89835443Y-124894194D01*
X89835443Y-124894194D01*
G37*
G36*
X133402521Y-122124586D02*
X133566309Y-122192429D01*
X133713720Y-122290926D01*
X133839074Y-122416280D01*
X133937571Y-122563691D01*
X134005414Y-122727479D01*
X134040000Y-122901356D01*
X134040000Y-123078644D01*
X134005414Y-123252521D01*
X133937571Y-123416309D01*
X133839074Y-123563720D01*
X133713720Y-123689074D01*
X133566309Y-123787571D01*
X133402521Y-123855414D01*
X133228644Y-123890000D01*
X133051356Y-123890000D01*
X132877479Y-123855414D01*
X132713691Y-123787571D01*
X132566280Y-123689074D01*
X132440926Y-123563720D01*
X132342429Y-123416309D01*
X132274586Y-123252521D01*
X132240000Y-123078644D01*
X132240000Y-122901356D01*
X132274586Y-122727479D01*
X132342429Y-122563691D01*
X132440926Y-122416280D01*
X132566280Y-122290926D01*
X132713691Y-122192429D01*
X132877479Y-122124586D01*
X133051356Y-122090000D01*
X133228644Y-122090000D01*
X133402521Y-122124586D01*
X133402521Y-122124586D01*
G37*
G36*
X130862521Y-122124586D02*
X131026309Y-122192429D01*
X131173720Y-122290926D01*
X131299074Y-122416280D01*
X131397571Y-122563691D01*
X131465414Y-122727479D01*
X131500000Y-122901356D01*
X131500000Y-123078644D01*
X131465414Y-123252521D01*
X131397571Y-123416309D01*
X131299074Y-123563720D01*
X131173720Y-123689074D01*
X131026309Y-123787571D01*
X130862521Y-123855414D01*
X130688644Y-123890000D01*
X130511356Y-123890000D01*
X130337479Y-123855414D01*
X130173691Y-123787571D01*
X130026280Y-123689074D01*
X129900926Y-123563720D01*
X129802429Y-123416309D01*
X129734586Y-123252521D01*
X129700000Y-123078644D01*
X129700000Y-122901356D01*
X129734586Y-122727479D01*
X129802429Y-122563691D01*
X129900926Y-122416280D01*
X130026280Y-122290926D01*
X130173691Y-122192429D01*
X130337479Y-122124586D01*
X130511356Y-122090000D01*
X130688644Y-122090000D01*
X130862521Y-122124586D01*
X130862521Y-122124586D01*
G37*
G36*
X128322521Y-122124586D02*
X128486309Y-122192429D01*
X128633720Y-122290926D01*
X128759074Y-122416280D01*
X128857571Y-122563691D01*
X128925414Y-122727479D01*
X128960000Y-122901356D01*
X128960000Y-123078644D01*
X128925414Y-123252521D01*
X128857571Y-123416309D01*
X128759074Y-123563720D01*
X128633720Y-123689074D01*
X128486309Y-123787571D01*
X128322521Y-123855414D01*
X128148644Y-123890000D01*
X127971356Y-123890000D01*
X127797479Y-123855414D01*
X127633691Y-123787571D01*
X127486280Y-123689074D01*
X127360926Y-123563720D01*
X127262429Y-123416309D01*
X127194586Y-123252521D01*
X127160000Y-123078644D01*
X127160000Y-122901356D01*
X127194586Y-122727479D01*
X127262429Y-122563691D01*
X127360926Y-122416280D01*
X127486280Y-122290926D01*
X127633691Y-122192429D01*
X127797479Y-122124586D01*
X127971356Y-122090000D01*
X128148644Y-122090000D01*
X128322521Y-122124586D01*
X128322521Y-122124586D01*
G37*
G36*
X125782521Y-122124586D02*
X125946309Y-122192429D01*
X126093720Y-122290926D01*
X126219074Y-122416280D01*
X126317571Y-122563691D01*
X126385414Y-122727479D01*
X126420000Y-122901356D01*
X126420000Y-123078644D01*
X126385414Y-123252521D01*
X126317571Y-123416309D01*
X126219074Y-123563720D01*
X126093720Y-123689074D01*
X125946309Y-123787571D01*
X125782521Y-123855414D01*
X125608644Y-123890000D01*
X125431356Y-123890000D01*
X125257479Y-123855414D01*
X125093691Y-123787571D01*
X124946280Y-123689074D01*
X124820926Y-123563720D01*
X124722429Y-123416309D01*
X124654586Y-123252521D01*
X124620000Y-123078644D01*
X124620000Y-122901356D01*
X124654586Y-122727479D01*
X124722429Y-122563691D01*
X124820926Y-122416280D01*
X124946280Y-122290926D01*
X125093691Y-122192429D01*
X125257479Y-122124586D01*
X125431356Y-122090000D01*
X125608644Y-122090000D01*
X125782521Y-122124586D01*
X125782521Y-122124586D01*
G37*
G36*
X123242521Y-122124586D02*
X123406309Y-122192429D01*
X123553720Y-122290926D01*
X123679074Y-122416280D01*
X123777571Y-122563691D01*
X123845414Y-122727479D01*
X123880000Y-122901356D01*
X123880000Y-123078644D01*
X123845414Y-123252521D01*
X123777571Y-123416309D01*
X123679074Y-123563720D01*
X123553720Y-123689074D01*
X123406309Y-123787571D01*
X123242521Y-123855414D01*
X123068644Y-123890000D01*
X122891356Y-123890000D01*
X122717479Y-123855414D01*
X122553691Y-123787571D01*
X122406280Y-123689074D01*
X122280926Y-123563720D01*
X122182429Y-123416309D01*
X122114586Y-123252521D01*
X122080000Y-123078644D01*
X122080000Y-122901356D01*
X122114586Y-122727479D01*
X122182429Y-122563691D01*
X122280926Y-122416280D01*
X122406280Y-122290926D01*
X122553691Y-122192429D01*
X122717479Y-122124586D01*
X122891356Y-122090000D01*
X123068644Y-122090000D01*
X123242521Y-122124586D01*
X123242521Y-122124586D01*
G37*
G36*
X120702521Y-122124586D02*
X120866309Y-122192429D01*
X121013720Y-122290926D01*
X121139074Y-122416280D01*
X121237571Y-122563691D01*
X121305414Y-122727479D01*
X121340000Y-122901356D01*
X121340000Y-123078644D01*
X121305414Y-123252521D01*
X121237571Y-123416309D01*
X121139074Y-123563720D01*
X121013720Y-123689074D01*
X120866309Y-123787571D01*
X120702521Y-123855414D01*
X120528644Y-123890000D01*
X120351356Y-123890000D01*
X120177479Y-123855414D01*
X120013691Y-123787571D01*
X119866280Y-123689074D01*
X119740926Y-123563720D01*
X119642429Y-123416309D01*
X119574586Y-123252521D01*
X119540000Y-123078644D01*
X119540000Y-122901356D01*
X119574586Y-122727479D01*
X119642429Y-122563691D01*
X119740926Y-122416280D01*
X119866280Y-122290926D01*
X120013691Y-122192429D01*
X120177479Y-122124586D01*
X120351356Y-122090000D01*
X120528644Y-122090000D01*
X120702521Y-122124586D01*
X120702521Y-122124586D01*
G37*
G36*
X118162521Y-122124586D02*
X118326309Y-122192429D01*
X118473720Y-122290926D01*
X118599074Y-122416280D01*
X118697571Y-122563691D01*
X118765414Y-122727479D01*
X118800000Y-122901356D01*
X118800000Y-123078644D01*
X118765414Y-123252521D01*
X118697571Y-123416309D01*
X118599074Y-123563720D01*
X118473720Y-123689074D01*
X118326309Y-123787571D01*
X118162521Y-123855414D01*
X117988644Y-123890000D01*
X117811356Y-123890000D01*
X117637479Y-123855414D01*
X117473691Y-123787571D01*
X117326280Y-123689074D01*
X117200926Y-123563720D01*
X117102429Y-123416309D01*
X117034586Y-123252521D01*
X117000000Y-123078644D01*
X117000000Y-122901356D01*
X117034586Y-122727479D01*
X117102429Y-122563691D01*
X117200926Y-122416280D01*
X117326280Y-122290926D01*
X117473691Y-122192429D01*
X117637479Y-122124586D01*
X117811356Y-122090000D01*
X117988644Y-122090000D01*
X118162521Y-122124586D01*
X118162521Y-122124586D01*
G37*
G36*
X115622521Y-122124586D02*
X115786309Y-122192429D01*
X115933720Y-122290926D01*
X116059074Y-122416280D01*
X116157571Y-122563691D01*
X116225414Y-122727479D01*
X116260000Y-122901356D01*
X116260000Y-123078644D01*
X116225414Y-123252521D01*
X116157571Y-123416309D01*
X116059074Y-123563720D01*
X115933720Y-123689074D01*
X115786309Y-123787571D01*
X115622521Y-123855414D01*
X115448644Y-123890000D01*
X115271356Y-123890000D01*
X115097479Y-123855414D01*
X114933691Y-123787571D01*
X114786280Y-123689074D01*
X114660926Y-123563720D01*
X114562429Y-123416309D01*
X114494586Y-123252521D01*
X114460000Y-123078644D01*
X114460000Y-122901356D01*
X114494586Y-122727479D01*
X114562429Y-122563691D01*
X114660926Y-122416280D01*
X114786280Y-122290926D01*
X114933691Y-122192429D01*
X115097479Y-122124586D01*
X115271356Y-122090000D01*
X115448644Y-122090000D01*
X115622521Y-122124586D01*
X115622521Y-122124586D01*
G37*
G36*
X113082521Y-122124586D02*
X113246309Y-122192429D01*
X113393720Y-122290926D01*
X113519074Y-122416280D01*
X113617571Y-122563691D01*
X113685414Y-122727479D01*
X113720000Y-122901356D01*
X113720000Y-123078644D01*
X113685414Y-123252521D01*
X113617571Y-123416309D01*
X113519074Y-123563720D01*
X113393720Y-123689074D01*
X113246309Y-123787571D01*
X113082521Y-123855414D01*
X112908644Y-123890000D01*
X112731356Y-123890000D01*
X112557479Y-123855414D01*
X112393691Y-123787571D01*
X112246280Y-123689074D01*
X112120926Y-123563720D01*
X112022429Y-123416309D01*
X111954586Y-123252521D01*
X111920000Y-123078644D01*
X111920000Y-122901356D01*
X111954586Y-122727479D01*
X112022429Y-122563691D01*
X112120926Y-122416280D01*
X112246280Y-122290926D01*
X112393691Y-122192429D01*
X112557479Y-122124586D01*
X112731356Y-122090000D01*
X112908644Y-122090000D01*
X113082521Y-122124586D01*
X113082521Y-122124586D01*
G37*
G36*
X110542521Y-122124586D02*
X110706309Y-122192429D01*
X110853720Y-122290926D01*
X110979074Y-122416280D01*
X111077571Y-122563691D01*
X111145414Y-122727479D01*
X111180000Y-122901356D01*
X111180000Y-123078644D01*
X111145414Y-123252521D01*
X111077571Y-123416309D01*
X110979074Y-123563720D01*
X110853720Y-123689074D01*
X110706309Y-123787571D01*
X110542521Y-123855414D01*
X110368644Y-123890000D01*
X110191356Y-123890000D01*
X110017479Y-123855414D01*
X109853691Y-123787571D01*
X109706280Y-123689074D01*
X109580926Y-123563720D01*
X109482429Y-123416309D01*
X109414586Y-123252521D01*
X109380000Y-123078644D01*
X109380000Y-122901356D01*
X109414586Y-122727479D01*
X109482429Y-122563691D01*
X109580926Y-122416280D01*
X109706280Y-122290926D01*
X109853691Y-122192429D01*
X110017479Y-122124586D01*
X110191356Y-122090000D01*
X110368644Y-122090000D01*
X110542521Y-122124586D01*
X110542521Y-122124586D01*
G37*
G36*
X108002521Y-122124586D02*
X108166309Y-122192429D01*
X108313720Y-122290926D01*
X108439074Y-122416280D01*
X108537571Y-122563691D01*
X108605414Y-122727479D01*
X108640000Y-122901356D01*
X108640000Y-123078644D01*
X108605414Y-123252521D01*
X108537571Y-123416309D01*
X108439074Y-123563720D01*
X108313720Y-123689074D01*
X108166309Y-123787571D01*
X108002521Y-123855414D01*
X107828644Y-123890000D01*
X107651356Y-123890000D01*
X107477479Y-123855414D01*
X107313691Y-123787571D01*
X107166280Y-123689074D01*
X107040926Y-123563720D01*
X106942429Y-123416309D01*
X106874586Y-123252521D01*
X106840000Y-123078644D01*
X106840000Y-122901356D01*
X106874586Y-122727479D01*
X106942429Y-122563691D01*
X107040926Y-122416280D01*
X107166280Y-122290926D01*
X107313691Y-122192429D01*
X107477479Y-122124586D01*
X107651356Y-122090000D01*
X107828644Y-122090000D01*
X108002521Y-122124586D01*
X108002521Y-122124586D01*
G37*
G36*
X105462521Y-122124586D02*
X105626309Y-122192429D01*
X105773720Y-122290926D01*
X105899074Y-122416280D01*
X105997571Y-122563691D01*
X106065414Y-122727479D01*
X106100000Y-122901356D01*
X106100000Y-123078644D01*
X106065414Y-123252521D01*
X105997571Y-123416309D01*
X105899074Y-123563720D01*
X105773720Y-123689074D01*
X105626309Y-123787571D01*
X105462521Y-123855414D01*
X105288644Y-123890000D01*
X105111356Y-123890000D01*
X104937479Y-123855414D01*
X104773691Y-123787571D01*
X104626280Y-123689074D01*
X104500926Y-123563720D01*
X104402429Y-123416309D01*
X104334586Y-123252521D01*
X104300000Y-123078644D01*
X104300000Y-122901356D01*
X104334586Y-122727479D01*
X104402429Y-122563691D01*
X104500926Y-122416280D01*
X104626280Y-122290926D01*
X104773691Y-122192429D01*
X104937479Y-122124586D01*
X105111356Y-122090000D01*
X105288644Y-122090000D01*
X105462521Y-122124586D01*
X105462521Y-122124586D01*
G37*
G36*
X143562521Y-122124586D02*
X143726309Y-122192429D01*
X143873720Y-122290926D01*
X143999074Y-122416280D01*
X144097571Y-122563691D01*
X144165414Y-122727479D01*
X144200000Y-122901356D01*
X144200000Y-123078644D01*
X144165414Y-123252521D01*
X144097571Y-123416309D01*
X143999074Y-123563720D01*
X143873720Y-123689074D01*
X143726309Y-123787571D01*
X143562521Y-123855414D01*
X143388644Y-123890000D01*
X143211356Y-123890000D01*
X143037479Y-123855414D01*
X142873691Y-123787571D01*
X142726280Y-123689074D01*
X142600926Y-123563720D01*
X142502429Y-123416309D01*
X142434586Y-123252521D01*
X142400000Y-123078644D01*
X142400000Y-122901356D01*
X142434586Y-122727479D01*
X142502429Y-122563691D01*
X142600926Y-122416280D01*
X142726280Y-122290926D01*
X142873691Y-122192429D01*
X143037479Y-122124586D01*
X143211356Y-122090000D01*
X143388644Y-122090000D01*
X143562521Y-122124586D01*
X143562521Y-122124586D01*
G37*
G36*
X141022521Y-122124586D02*
X141186309Y-122192429D01*
X141333720Y-122290926D01*
X141459074Y-122416280D01*
X141557571Y-122563691D01*
X141625414Y-122727479D01*
X141660000Y-122901356D01*
X141660000Y-123078644D01*
X141625414Y-123252521D01*
X141557571Y-123416309D01*
X141459074Y-123563720D01*
X141333720Y-123689074D01*
X141186309Y-123787571D01*
X141022521Y-123855414D01*
X140848644Y-123890000D01*
X140671356Y-123890000D01*
X140497479Y-123855414D01*
X140333691Y-123787571D01*
X140186280Y-123689074D01*
X140060926Y-123563720D01*
X139962429Y-123416309D01*
X139894586Y-123252521D01*
X139860000Y-123078644D01*
X139860000Y-122901356D01*
X139894586Y-122727479D01*
X139962429Y-122563691D01*
X140060926Y-122416280D01*
X140186280Y-122290926D01*
X140333691Y-122192429D01*
X140497479Y-122124586D01*
X140671356Y-122090000D01*
X140848644Y-122090000D01*
X141022521Y-122124586D01*
X141022521Y-122124586D01*
G37*
G36*
X138482521Y-122124586D02*
X138646309Y-122192429D01*
X138793720Y-122290926D01*
X138919074Y-122416280D01*
X139017571Y-122563691D01*
X139085414Y-122727479D01*
X139120000Y-122901356D01*
X139120000Y-123078644D01*
X139085414Y-123252521D01*
X139017571Y-123416309D01*
X138919074Y-123563720D01*
X138793720Y-123689074D01*
X138646309Y-123787571D01*
X138482521Y-123855414D01*
X138308644Y-123890000D01*
X138131356Y-123890000D01*
X137957479Y-123855414D01*
X137793691Y-123787571D01*
X137646280Y-123689074D01*
X137520926Y-123563720D01*
X137422429Y-123416309D01*
X137354586Y-123252521D01*
X137320000Y-123078644D01*
X137320000Y-122901356D01*
X137354586Y-122727479D01*
X137422429Y-122563691D01*
X137520926Y-122416280D01*
X137646280Y-122290926D01*
X137793691Y-122192429D01*
X137957479Y-122124586D01*
X138131356Y-122090000D01*
X138308644Y-122090000D01*
X138482521Y-122124586D01*
X138482521Y-122124586D01*
G37*
G36*
X135942521Y-122124586D02*
X136106309Y-122192429D01*
X136253720Y-122290926D01*
X136379074Y-122416280D01*
X136477571Y-122563691D01*
X136545414Y-122727479D01*
X136580000Y-122901356D01*
X136580000Y-123078644D01*
X136545414Y-123252521D01*
X136477571Y-123416309D01*
X136379074Y-123563720D01*
X136253720Y-123689074D01*
X136106309Y-123787571D01*
X135942521Y-123855414D01*
X135768644Y-123890000D01*
X135591356Y-123890000D01*
X135417479Y-123855414D01*
X135253691Y-123787571D01*
X135106280Y-123689074D01*
X134980926Y-123563720D01*
X134882429Y-123416309D01*
X134814586Y-123252521D01*
X134780000Y-123078644D01*
X134780000Y-122901356D01*
X134814586Y-122727479D01*
X134882429Y-122563691D01*
X134980926Y-122416280D01*
X135106280Y-122290926D01*
X135253691Y-122192429D01*
X135417479Y-122124586D01*
X135591356Y-122090000D01*
X135768644Y-122090000D01*
X135942521Y-122124586D01*
X135942521Y-122124586D01*
G37*
G36*
X105913000Y-111004000D02*
X99913000Y-111004000D01*
X99913000Y-105004000D01*
X105913000Y-105004000D01*
X105913000Y-111004000D01*
X105913000Y-111004000D01*
G37*
G36*
X152348015Y-93297234D02*
X152442268Y-93325825D01*
X152488697Y-93350643D01*
X152529129Y-93372254D01*
X152529131Y-93372255D01*
X152529130Y-93372255D01*
X152605264Y-93434736D01*
X152667745Y-93510870D01*
X152714175Y-93597732D01*
X152742766Y-93691985D01*
X152752419Y-93790000D01*
X152742766Y-93888015D01*
X152714175Y-93982268D01*
X152689357Y-94028697D01*
X152667746Y-94069129D01*
X152605264Y-94145264D01*
X152529129Y-94207746D01*
X152488697Y-94229357D01*
X152442268Y-94254175D01*
X152348015Y-94282766D01*
X152274564Y-94290000D01*
X152225436Y-94290000D01*
X152151985Y-94282766D01*
X152057732Y-94254175D01*
X152011303Y-94229357D01*
X151970871Y-94207746D01*
X151894736Y-94145264D01*
X151832254Y-94069129D01*
X151810643Y-94028697D01*
X151785825Y-93982268D01*
X151757234Y-93888015D01*
X151747581Y-93790000D01*
X151757234Y-93691985D01*
X151785825Y-93597732D01*
X151832255Y-93510870D01*
X151894736Y-93434736D01*
X151970870Y-93372255D01*
X151970869Y-93372255D01*
X151970871Y-93372254D01*
X152011303Y-93350643D01*
X152057732Y-93325825D01*
X152151985Y-93297234D01*
X152225436Y-93290000D01*
X152274564Y-93290000D01*
X152348015Y-93297234D01*
X152348015Y-93297234D01*
G37*
G36*
X143562521Y-91644586D02*
X143726309Y-91712429D01*
X143873720Y-91810926D01*
X143999074Y-91936280D01*
X144097571Y-92083691D01*
X144165414Y-92247479D01*
X144200000Y-92421356D01*
X144200000Y-92598644D01*
X144165414Y-92772521D01*
X144097571Y-92936309D01*
X143999074Y-93083720D01*
X143873720Y-93209074D01*
X143726309Y-93307571D01*
X143562521Y-93375414D01*
X143388644Y-93410000D01*
X143211356Y-93410000D01*
X143037479Y-93375414D01*
X142873691Y-93307571D01*
X142726280Y-93209074D01*
X142600926Y-93083720D01*
X142502429Y-92936309D01*
X142434586Y-92772521D01*
X142400000Y-92598644D01*
X142400000Y-92421356D01*
X142434586Y-92247479D01*
X142502429Y-92083691D01*
X142600926Y-91936280D01*
X142726280Y-91810926D01*
X142873691Y-91712429D01*
X143037479Y-91644586D01*
X143211356Y-91610000D01*
X143388644Y-91610000D01*
X143562521Y-91644586D01*
X143562521Y-91644586D01*
G37*
G36*
X138482521Y-91644586D02*
X138646309Y-91712429D01*
X138793720Y-91810926D01*
X138919074Y-91936280D01*
X139017571Y-92083691D01*
X139085414Y-92247479D01*
X139120000Y-92421356D01*
X139120000Y-92598644D01*
X139085414Y-92772521D01*
X139017571Y-92936309D01*
X138919074Y-93083720D01*
X138793720Y-93209074D01*
X138646309Y-93307571D01*
X138482521Y-93375414D01*
X138308644Y-93410000D01*
X138131356Y-93410000D01*
X137957479Y-93375414D01*
X137793691Y-93307571D01*
X137646280Y-93209074D01*
X137520926Y-93083720D01*
X137422429Y-92936309D01*
X137354586Y-92772521D01*
X137320000Y-92598644D01*
X137320000Y-92421356D01*
X137354586Y-92247479D01*
X137422429Y-92083691D01*
X137520926Y-91936280D01*
X137646280Y-91810926D01*
X137793691Y-91712429D01*
X137957479Y-91644586D01*
X138131356Y-91610000D01*
X138308644Y-91610000D01*
X138482521Y-91644586D01*
X138482521Y-91644586D01*
G37*
G36*
X110542521Y-91644586D02*
X110706309Y-91712429D01*
X110853720Y-91810926D01*
X110979074Y-91936280D01*
X111077571Y-92083691D01*
X111145414Y-92247479D01*
X111180000Y-92421356D01*
X111180000Y-92598644D01*
X111145414Y-92772521D01*
X111077571Y-92936309D01*
X110979074Y-93083720D01*
X110853720Y-93209074D01*
X110706309Y-93307571D01*
X110542521Y-93375414D01*
X110368644Y-93410000D01*
X110191356Y-93410000D01*
X110017479Y-93375414D01*
X109853691Y-93307571D01*
X109706280Y-93209074D01*
X109580926Y-93083720D01*
X109482429Y-92936309D01*
X109414586Y-92772521D01*
X109380000Y-92598644D01*
X109380000Y-92421356D01*
X109414586Y-92247479D01*
X109482429Y-92083691D01*
X109580926Y-91936280D01*
X109706280Y-91810926D01*
X109853691Y-91712429D01*
X110017479Y-91644586D01*
X110191356Y-91610000D01*
X110368644Y-91610000D01*
X110542521Y-91644586D01*
X110542521Y-91644586D01*
G37*
G36*
X105462521Y-91644586D02*
X105626309Y-91712429D01*
X105773720Y-91810926D01*
X105899074Y-91936280D01*
X105997571Y-92083691D01*
X106065414Y-92247479D01*
X106100000Y-92421356D01*
X106100000Y-92598644D01*
X106065414Y-92772521D01*
X105997571Y-92936309D01*
X105899074Y-93083720D01*
X105773720Y-93209074D01*
X105626309Y-93307571D01*
X105462521Y-93375414D01*
X105288644Y-93410000D01*
X105111356Y-93410000D01*
X104937479Y-93375414D01*
X104773691Y-93307571D01*
X104626280Y-93209074D01*
X104500926Y-93083720D01*
X104402429Y-92936309D01*
X104334586Y-92772521D01*
X104300000Y-92598644D01*
X104300000Y-92421356D01*
X104334586Y-92247479D01*
X104402429Y-92083691D01*
X104500926Y-91936280D01*
X104626280Y-91810926D01*
X104773691Y-91712429D01*
X104937479Y-91644586D01*
X105111356Y-91610000D01*
X105288644Y-91610000D01*
X105462521Y-91644586D01*
X105462521Y-91644586D01*
G37*
G36*
X118162521Y-91644586D02*
X118326309Y-91712429D01*
X118473720Y-91810926D01*
X118599074Y-91936280D01*
X118697571Y-92083691D01*
X118765414Y-92247479D01*
X118800000Y-92421356D01*
X118800000Y-92598644D01*
X118765414Y-92772521D01*
X118697571Y-92936309D01*
X118599074Y-93083720D01*
X118473720Y-93209074D01*
X118326309Y-93307571D01*
X118162521Y-93375414D01*
X117988644Y-93410000D01*
X117811356Y-93410000D01*
X117637479Y-93375414D01*
X117473691Y-93307571D01*
X117326280Y-93209074D01*
X117200926Y-93083720D01*
X117102429Y-92936309D01*
X117034586Y-92772521D01*
X117000000Y-92598644D01*
X117000000Y-92421356D01*
X117034586Y-92247479D01*
X117102429Y-92083691D01*
X117200926Y-91936280D01*
X117326280Y-91810926D01*
X117473691Y-91712429D01*
X117637479Y-91644586D01*
X117811356Y-91610000D01*
X117988644Y-91610000D01*
X118162521Y-91644586D01*
X118162521Y-91644586D01*
G37*
G36*
X130862521Y-91644586D02*
X131026309Y-91712429D01*
X131173720Y-91810926D01*
X131299074Y-91936280D01*
X131397571Y-92083691D01*
X131465414Y-92247479D01*
X131500000Y-92421356D01*
X131500000Y-92598644D01*
X131465414Y-92772521D01*
X131397571Y-92936309D01*
X131299074Y-93083720D01*
X131173720Y-93209074D01*
X131026309Y-93307571D01*
X130862521Y-93375414D01*
X130688644Y-93410000D01*
X130511356Y-93410000D01*
X130337479Y-93375414D01*
X130173691Y-93307571D01*
X130026280Y-93209074D01*
X129900926Y-93083720D01*
X129802429Y-92936309D01*
X129734586Y-92772521D01*
X129700000Y-92598644D01*
X129700000Y-92421356D01*
X129734586Y-92247479D01*
X129802429Y-92083691D01*
X129900926Y-91936280D01*
X130026280Y-91810926D01*
X130173691Y-91712429D01*
X130337479Y-91644586D01*
X130511356Y-91610000D01*
X130688644Y-91610000D01*
X130862521Y-91644586D01*
X130862521Y-91644586D01*
G37*
G36*
X125782521Y-91644586D02*
X125946309Y-91712429D01*
X126093720Y-91810926D01*
X126219074Y-91936280D01*
X126317571Y-92083691D01*
X126385414Y-92247479D01*
X126420000Y-92421356D01*
X126420000Y-92598644D01*
X126385414Y-92772521D01*
X126317571Y-92936309D01*
X126219074Y-93083720D01*
X126093720Y-93209074D01*
X125946309Y-93307571D01*
X125782521Y-93375414D01*
X125608644Y-93410000D01*
X125431356Y-93410000D01*
X125257479Y-93375414D01*
X125093691Y-93307571D01*
X124946280Y-93209074D01*
X124820926Y-93083720D01*
X124722429Y-92936309D01*
X124654586Y-92772521D01*
X124620000Y-92598644D01*
X124620000Y-92421356D01*
X124654586Y-92247479D01*
X124722429Y-92083691D01*
X124820926Y-91936280D01*
X124946280Y-91810926D01*
X125093691Y-91712429D01*
X125257479Y-91644586D01*
X125431356Y-91610000D01*
X125608644Y-91610000D01*
X125782521Y-91644586D01*
X125782521Y-91644586D01*
G37*
G36*
X152348015Y-92027234D02*
X152442268Y-92055825D01*
X152488697Y-92080643D01*
X152529129Y-92102254D01*
X152605264Y-92164736D01*
X152667746Y-92240871D01*
X152689357Y-92281303D01*
X152714175Y-92327732D01*
X152742766Y-92421985D01*
X152752419Y-92520000D01*
X152742766Y-92618015D01*
X152714175Y-92712268D01*
X152689357Y-92758697D01*
X152667746Y-92799129D01*
X152605264Y-92875264D01*
X152529129Y-92937746D01*
X152488697Y-92959357D01*
X152442268Y-92984175D01*
X152348015Y-93012766D01*
X152274564Y-93020000D01*
X152225436Y-93020000D01*
X152151985Y-93012766D01*
X152057732Y-92984175D01*
X152011303Y-92959357D01*
X151970871Y-92937746D01*
X151894736Y-92875264D01*
X151832254Y-92799129D01*
X151810643Y-92758697D01*
X151785825Y-92712268D01*
X151757234Y-92618015D01*
X151747581Y-92520000D01*
X151757234Y-92421985D01*
X151785825Y-92327732D01*
X151810643Y-92281303D01*
X151832254Y-92240871D01*
X151894736Y-92164736D01*
X151970871Y-92102254D01*
X152011303Y-92080643D01*
X152057732Y-92055825D01*
X152151985Y-92027234D01*
X152225436Y-92020000D01*
X152274564Y-92020000D01*
X152348015Y-92027234D01*
X152348015Y-92027234D01*
G37*
G36*
X152348015Y-90757234D02*
X152442268Y-90785825D01*
X152488697Y-90810643D01*
X152529129Y-90832254D01*
X152529131Y-90832255D01*
X152529130Y-90832255D01*
X152605264Y-90894736D01*
X152667745Y-90970870D01*
X152714175Y-91057732D01*
X152742766Y-91151985D01*
X152752419Y-91250000D01*
X152742766Y-91348015D01*
X152714175Y-91442268D01*
X152689357Y-91488697D01*
X152667746Y-91529129D01*
X152605264Y-91605264D01*
X152529129Y-91667746D01*
X152488697Y-91689357D01*
X152442268Y-91714175D01*
X152348015Y-91742766D01*
X152274564Y-91750000D01*
X152225436Y-91750000D01*
X152151985Y-91742766D01*
X152057732Y-91714175D01*
X152011303Y-91689357D01*
X151970871Y-91667746D01*
X151894736Y-91605264D01*
X151832254Y-91529129D01*
X151810643Y-91488697D01*
X151785825Y-91442268D01*
X151757234Y-91348015D01*
X151747581Y-91250000D01*
X151757234Y-91151985D01*
X151785825Y-91057732D01*
X151832255Y-90970870D01*
X151894736Y-90894736D01*
X151970870Y-90832255D01*
X151970869Y-90832255D01*
X151970871Y-90832254D01*
X152011303Y-90810643D01*
X152057732Y-90785825D01*
X152151985Y-90757234D01*
X152225436Y-90750000D01*
X152274564Y-90750000D01*
X152348015Y-90757234D01*
X152348015Y-90757234D01*
G37*
G36*
X152750000Y-90480000D02*
X151750000Y-90480000D01*
X151750000Y-89480000D01*
X152750000Y-89480000D01*
X152750000Y-90480000D01*
X152750000Y-90480000D01*
G37*
G36*
X149884612Y-81048037D02*
X150112096Y-81142264D01*
X150316831Y-81279064D01*
X150490936Y-81453169D01*
X150627736Y-81657904D01*
X150721963Y-81885388D01*
X150770000Y-82126885D01*
X150770000Y-82373115D01*
X150721963Y-82614612D01*
X150627736Y-82842096D01*
X150490936Y-83046831D01*
X150316831Y-83220936D01*
X150112096Y-83357736D01*
X149884612Y-83451963D01*
X149643115Y-83500000D01*
X149396885Y-83500000D01*
X149155388Y-83451963D01*
X148927904Y-83357736D01*
X148723169Y-83220936D01*
X148549064Y-83046831D01*
X148412264Y-82842096D01*
X148318037Y-82614612D01*
X148270000Y-82373115D01*
X148270000Y-82126885D01*
X148318037Y-81885388D01*
X148412264Y-81657904D01*
X148549064Y-81453169D01*
X148723169Y-81279064D01*
X148927904Y-81142264D01*
X149155388Y-81048037D01*
X149396885Y-81000000D01*
X149643115Y-81000000D01*
X149884612Y-81048037D01*
X149884612Y-81048037D01*
G37*
G36*
X101114612Y-81048037D02*
X101342096Y-81142264D01*
X101546831Y-81279064D01*
X101720936Y-81453169D01*
X101857736Y-81657904D01*
X101951963Y-81885388D01*
X102000000Y-82126885D01*
X102000000Y-82373115D01*
X101951963Y-82614612D01*
X101857736Y-82842096D01*
X101720936Y-83046831D01*
X101546831Y-83220936D01*
X101342096Y-83357736D01*
X101114612Y-83451963D01*
X100873115Y-83500000D01*
X100626885Y-83500000D01*
X100385388Y-83451963D01*
X100157904Y-83357736D01*
X99953169Y-83220936D01*
X99779064Y-83046831D01*
X99642264Y-82842096D01*
X99548037Y-82614612D01*
X99500000Y-82373115D01*
X99500000Y-82126885D01*
X99548037Y-81885388D01*
X99642264Y-81657904D01*
X99779064Y-81453169D01*
X99953169Y-81279064D01*
X100157904Y-81142264D01*
X100385388Y-81048037D01*
X100626885Y-81000000D01*
X100873115Y-81000000D01*
X101114612Y-81048037D01*
X101114612Y-81048037D01*
G37*
G36*
X108734612Y-81048037D02*
X108962096Y-81142264D01*
X109166831Y-81279064D01*
X109340936Y-81453169D01*
X109477736Y-81657904D01*
X109571963Y-81885388D01*
X109620000Y-82126885D01*
X109620000Y-82373115D01*
X109571963Y-82614612D01*
X109477736Y-82842096D01*
X109340936Y-83046831D01*
X109166831Y-83220936D01*
X108962096Y-83357736D01*
X108734612Y-83451963D01*
X108493115Y-83500000D01*
X108246885Y-83500000D01*
X108005388Y-83451963D01*
X107777904Y-83357736D01*
X107573169Y-83220936D01*
X107399064Y-83046831D01*
X107262264Y-82842096D01*
X107168037Y-82614612D01*
X107120000Y-82373115D01*
X107120000Y-82126885D01*
X107168037Y-81885388D01*
X107262264Y-81657904D01*
X107399064Y-81453169D01*
X107573169Y-81279064D01*
X107777904Y-81142264D01*
X108005388Y-81048037D01*
X108246885Y-81000000D01*
X108493115Y-81000000D01*
X108734612Y-81048037D01*
X108734612Y-81048037D01*
G37*
G36*
X142264612Y-81048037D02*
X142492096Y-81142264D01*
X142696831Y-81279064D01*
X142870936Y-81453169D01*
X143007736Y-81657904D01*
X143101963Y-81885388D01*
X143150000Y-82126885D01*
X143150000Y-82373115D01*
X143101963Y-82614612D01*
X143007736Y-82842096D01*
X142870936Y-83046831D01*
X142696831Y-83220936D01*
X142492096Y-83357736D01*
X142264612Y-83451963D01*
X142023115Y-83500000D01*
X141776885Y-83500000D01*
X141535388Y-83451963D01*
X141307904Y-83357736D01*
X141103169Y-83220936D01*
X140929064Y-83046831D01*
X140792264Y-82842096D01*
X140698037Y-82614612D01*
X140650000Y-82373115D01*
X140650000Y-82126885D01*
X140698037Y-81885388D01*
X140792264Y-81657904D01*
X140929064Y-81453169D01*
X141103169Y-81279064D01*
X141307904Y-81142264D01*
X141535388Y-81048037D01*
X141776885Y-81000000D01*
X142023115Y-81000000D01*
X142264612Y-81048037D01*
X142264612Y-81048037D01*
G37*
G36*
X140745039Y-74018086D02*
X140745042Y-74018087D01*
X140745043Y-74018087D01*
X140980669Y-74089563D01*
X141197823Y-74205634D01*
X141388160Y-74361840D01*
X141544366Y-74552177D01*
X141660437Y-74769331D01*
X141696051Y-74886735D01*
X141731914Y-75004961D01*
X141756048Y-75250000D01*
X141731914Y-75495039D01*
X141731913Y-75495042D01*
X141731913Y-75495043D01*
X141660437Y-75730669D01*
X141544366Y-75947823D01*
X141388160Y-76138160D01*
X141197823Y-76294366D01*
X140980669Y-76410437D01*
X140745043Y-76481913D01*
X140745042Y-76481913D01*
X140745039Y-76481914D01*
X140561409Y-76500000D01*
X129938591Y-76500000D01*
X129754961Y-76481914D01*
X129754958Y-76481913D01*
X129754957Y-76481913D01*
X129519331Y-76410437D01*
X129302177Y-76294366D01*
X129111840Y-76138160D01*
X128955634Y-75947823D01*
X128839563Y-75730669D01*
X128768087Y-75495043D01*
X128768087Y-75495042D01*
X128768086Y-75495039D01*
X128743952Y-75250000D01*
X128768086Y-75004961D01*
X128803949Y-74886735D01*
X128839563Y-74769331D01*
X128955634Y-74552177D01*
X129111840Y-74361840D01*
X129302177Y-74205634D01*
X129519331Y-74089563D01*
X129754957Y-74018087D01*
X129754958Y-74018087D01*
X129754961Y-74018086D01*
X129938591Y-74000000D01*
X140561409Y-74000000D01*
X140745039Y-74018086D01*
X140745039Y-74018086D01*
G37*
G36*
X114995039Y-74018086D02*
X114995042Y-74018087D01*
X114995043Y-74018087D01*
X115230669Y-74089563D01*
X115447823Y-74205634D01*
X115638160Y-74361840D01*
X115794366Y-74552177D01*
X115910437Y-74769331D01*
X115946051Y-74886735D01*
X115981914Y-75004961D01*
X116006048Y-75250000D01*
X115981914Y-75495039D01*
X115981913Y-75495042D01*
X115981913Y-75495043D01*
X115910437Y-75730669D01*
X115794366Y-75947823D01*
X115638160Y-76138160D01*
X115447823Y-76294366D01*
X115230669Y-76410437D01*
X114995043Y-76481913D01*
X114995042Y-76481913D01*
X114995039Y-76481914D01*
X114811409Y-76500000D01*
X104188591Y-76500000D01*
X104004961Y-76481914D01*
X104004958Y-76481913D01*
X104004957Y-76481913D01*
X103769331Y-76410437D01*
X103552177Y-76294366D01*
X103361840Y-76138160D01*
X103205634Y-75947823D01*
X103089563Y-75730669D01*
X103018087Y-75495043D01*
X103018087Y-75495042D01*
X103018086Y-75495039D01*
X102993952Y-75250000D01*
X103018086Y-75004961D01*
X103053949Y-74886735D01*
X103089563Y-74769331D01*
X103205634Y-74552177D01*
X103361840Y-74361840D01*
X103552177Y-74205634D01*
X103769331Y-74089563D01*
X104004957Y-74018087D01*
X104004958Y-74018087D01*
X104004961Y-74018086D01*
X104188591Y-74000000D01*
X114811409Y-74000000D01*
X114995039Y-74018086D01*
X114995039Y-74018086D01*
G37*
G36*
X152835443Y-73894194D02*
X153044728Y-73980883D01*
X153233085Y-74106739D01*
X153393261Y-74266915D01*
X153519117Y-74455272D01*
X153605806Y-74664557D01*
X153650000Y-74886734D01*
X153650000Y-75113266D01*
X153605806Y-75335443D01*
X153519117Y-75544728D01*
X153393261Y-75733085D01*
X153233085Y-75893261D01*
X153044728Y-76019117D01*
X152835443Y-76105806D01*
X152613266Y-76150000D01*
X152386734Y-76150000D01*
X152164557Y-76105806D01*
X151955272Y-76019117D01*
X151766915Y-75893261D01*
X151606739Y-75733085D01*
X151480883Y-75544728D01*
X151394194Y-75335443D01*
X151350000Y-75113266D01*
X151350000Y-74886734D01*
X151394194Y-74664557D01*
X151480883Y-74455272D01*
X151606739Y-74266915D01*
X151766915Y-74106739D01*
X151955272Y-73980883D01*
X152164557Y-73894194D01*
X152386734Y-73850000D01*
X152613266Y-73850000D01*
X152835443Y-73894194D01*
X152835443Y-73894194D01*
G37*
G36*
X89085443Y-73894194D02*
X89294728Y-73980883D01*
X89483085Y-74106739D01*
X89643261Y-74266915D01*
X89769117Y-74455272D01*
X89855806Y-74664557D01*
X89900000Y-74886734D01*
X89900000Y-75113266D01*
X89855806Y-75335443D01*
X89769117Y-75544728D01*
X89643261Y-75733085D01*
X89483085Y-75893261D01*
X89294728Y-76019117D01*
X89085443Y-76105806D01*
X88863266Y-76150000D01*
X88636734Y-76150000D01*
X88414557Y-76105806D01*
X88205272Y-76019117D01*
X88016915Y-75893261D01*
X87856739Y-75733085D01*
X87730883Y-75544728D01*
X87644194Y-75335443D01*
X87600000Y-75113266D01*
X87600000Y-74886734D01*
X87644194Y-74664557D01*
X87730883Y-74455272D01*
X87856739Y-74266915D01*
X88016915Y-74106739D01*
X88205272Y-73980883D01*
X88414557Y-73894194D01*
X88636734Y-73850000D01*
X88863266Y-73850000D01*
X89085443Y-73894194D01*
X89085443Y-73894194D01*
G37*
M02*
