%TF.GenerationSoftware,KiCad,Pcbnew,(6.0.0-rc1-dev-853-g5bbc2d74a)*%
%TF.CreationDate,2018-11-17T03:51:26+01:00*%
%TF.ProjectId,VFD_Watch,5646445F57617463682E6B696361645F,rev?*%
%TF.SameCoordinates,Original*%
%TF.FileFunction,Legend,Top*%
%TF.FilePolarity,Positive*%
%FSLAX46Y46*%
G04 Gerber Fmt 4.6, Leading zero omitted, Abs format (unit mm)*
G04 Created by KiCad (PCBNEW (6.0.0-rc1-dev-853-g5bbc2d74a)) date 2018 November 17, Saturday 03:51:26*
%MOMM*%
%LPD*%
G01*
G04 APERTURE LIST*
%ADD10C,0.100000*%
%ADD11C,0.050000*%
%ADD12C,0.150000*%
%ADD13C,0.500000*%
%ADD14C,0.120000*%
G04 APERTURE END LIST*
D10*
X148890476Y-89400000D02*
X148814285Y-89361904D01*
X148700000Y-89361904D01*
X148585714Y-89400000D01*
X148509523Y-89476190D01*
X148471428Y-89552380D01*
X148433333Y-89704761D01*
X148433333Y-89819047D01*
X148471428Y-89971428D01*
X148509523Y-90047619D01*
X148585714Y-90123809D01*
X148700000Y-90161904D01*
X148776190Y-90161904D01*
X148890476Y-90123809D01*
X148928571Y-90085714D01*
X148928571Y-89819047D01*
X148776190Y-89819047D01*
X149271428Y-90161904D02*
X149271428Y-89361904D01*
X149728571Y-90161904D01*
X149728571Y-89361904D01*
X150109523Y-90161904D02*
X150109523Y-89361904D01*
X150300000Y-89361904D01*
X150414285Y-89400000D01*
X150490476Y-89476190D01*
X150528571Y-89552380D01*
X150566666Y-89704761D01*
X150566666Y-89819047D01*
X150528571Y-89971428D01*
X150490476Y-90047619D01*
X150414285Y-90123809D01*
X150300000Y-90161904D01*
X150109523Y-90161904D01*
X148528571Y-91423809D02*
X148642857Y-91461904D01*
X148833333Y-91461904D01*
X148909523Y-91423809D01*
X148947619Y-91385714D01*
X148985714Y-91309523D01*
X148985714Y-91233333D01*
X148947619Y-91157142D01*
X148909523Y-91119047D01*
X148833333Y-91080952D01*
X148680952Y-91042857D01*
X148604761Y-91004761D01*
X148566666Y-90966666D01*
X148528571Y-90890476D01*
X148528571Y-90814285D01*
X148566666Y-90738095D01*
X148604761Y-90700000D01*
X148680952Y-90661904D01*
X148871428Y-90661904D01*
X148985714Y-90700000D01*
X149328571Y-91461904D02*
X149328571Y-90661904D01*
X149519047Y-90661904D01*
X149633333Y-90700000D01*
X149709523Y-90776190D01*
X149747619Y-90852380D01*
X149785714Y-91004761D01*
X149785714Y-91119047D01*
X149747619Y-91271428D01*
X149709523Y-91347619D01*
X149633333Y-91423809D01*
X149519047Y-91461904D01*
X149328571Y-91461904D01*
X150090476Y-91233333D02*
X150471428Y-91233333D01*
X150014285Y-91461904D02*
X150280952Y-90661904D01*
X150547619Y-91461904D01*
X148471428Y-92723809D02*
X148585714Y-92761904D01*
X148776190Y-92761904D01*
X148852380Y-92723809D01*
X148890476Y-92685714D01*
X148928571Y-92609523D01*
X148928571Y-92533333D01*
X148890476Y-92457142D01*
X148852380Y-92419047D01*
X148776190Y-92380952D01*
X148623809Y-92342857D01*
X148547619Y-92304761D01*
X148509523Y-92266666D01*
X148471428Y-92190476D01*
X148471428Y-92114285D01*
X148509523Y-92038095D01*
X148547619Y-92000000D01*
X148623809Y-91961904D01*
X148814285Y-91961904D01*
X148928571Y-92000000D01*
X149728571Y-92685714D02*
X149690476Y-92723809D01*
X149576190Y-92761904D01*
X149500000Y-92761904D01*
X149385714Y-92723809D01*
X149309523Y-92647619D01*
X149271428Y-92571428D01*
X149233333Y-92419047D01*
X149233333Y-92304761D01*
X149271428Y-92152380D01*
X149309523Y-92076190D01*
X149385714Y-92000000D01*
X149500000Y-91961904D01*
X149576190Y-91961904D01*
X149690476Y-92000000D01*
X149728571Y-92038095D01*
X150071428Y-92761904D02*
X150071428Y-91961904D01*
X150528571Y-92761904D02*
X150185714Y-92304761D01*
X150528571Y-91961904D02*
X150071428Y-92419047D01*
X148509523Y-93261904D02*
X149004761Y-93261904D01*
X148738095Y-93566666D01*
X148852380Y-93566666D01*
X148928571Y-93604761D01*
X148966666Y-93642857D01*
X149004761Y-93719047D01*
X149004761Y-93909523D01*
X148966666Y-93985714D01*
X148928571Y-94023809D01*
X148852380Y-94061904D01*
X148623809Y-94061904D01*
X148547619Y-94023809D01*
X148509523Y-93985714D01*
X149233333Y-93261904D02*
X149500000Y-94061904D01*
X149766666Y-93261904D01*
X149957142Y-93261904D02*
X150452380Y-93261904D01*
X150185714Y-93566666D01*
X150300000Y-93566666D01*
X150376190Y-93604761D01*
X150414285Y-93642857D01*
X150452380Y-93719047D01*
X150452380Y-93909523D01*
X150414285Y-93985714D01*
X150376190Y-94023809D01*
X150300000Y-94061904D01*
X150071428Y-94061904D01*
X149995238Y-94023809D01*
X149957142Y-93985714D01*
D11*
X93750000Y-117000000D02*
G75*
G02X92250000Y-118500000I-1500000J0D01*
G01*
X92250000Y-96250000D02*
G75*
G02X93750000Y-97750000I0J-1500000D01*
G01*
X88250000Y-96250000D02*
G75*
G02X86750000Y-94750000I0J1500000D01*
G01*
X87500000Y-120000000D02*
G75*
G02X89000000Y-118500000I1500000J0D01*
G01*
X89000000Y-128000000D02*
G75*
G02X87500000Y-126500000I0J1500000D01*
G01*
X154500000Y-126500000D02*
G75*
G02X153000000Y-128000000I-1500000J0D01*
G01*
X153000000Y-73000000D02*
G75*
G02X154500000Y-74500000I0J-1500000D01*
G01*
X86750000Y-74500000D02*
G75*
G02X88250000Y-73000000I1500000J0D01*
G01*
X87500000Y-120000000D02*
X87500000Y-126500000D01*
X92250000Y-118500000D02*
X89000000Y-118500000D01*
X93750000Y-97750000D02*
X93750000Y-117000000D01*
X88250000Y-96250000D02*
X92250000Y-96250000D01*
X86750000Y-76750000D02*
X86750000Y-94750000D01*
X86750000Y-74500000D02*
X86750000Y-76750000D01*
X153000000Y-73000000D02*
X88250000Y-73000000D01*
X154500000Y-74500000D02*
X154500000Y-126500000D01*
X89000000Y-128000000D02*
X153000000Y-128000000D01*
D12*
X86150000Y-109020000D02*
X93770000Y-109020000D01*
X86150000Y-105210000D02*
X86150000Y-109020000D01*
X93770000Y-105210000D02*
X86150000Y-105210000D01*
X93770000Y-120450000D02*
X93770000Y-95050000D01*
X153460000Y-120450000D02*
X93770000Y-120450000D01*
X153460000Y-95050000D02*
X153460000Y-120450000D01*
X93770000Y-95050000D02*
X153460000Y-95050000D01*
D13*
X94179981Y-117656000D02*
G75*
G03X94179981Y-117656000I-283981J0D01*
G01*
D12*
X93750000Y-98750000D02*
X93750000Y-116750000D01*
X87750000Y-116750000D02*
X113250000Y-116750000D01*
X87750000Y-98750000D02*
X113250000Y-98750000D01*
X113250000Y-98750000D02*
X113250000Y-116750000D01*
X87750000Y-98750000D02*
X87750000Y-116750000D01*
D14*
X116140000Y-117610000D02*
X116860000Y-117610000D01*
X116140000Y-110390000D02*
X116140000Y-117610000D01*
X116860000Y-110390000D02*
X116140000Y-110390000D01*
X128860000Y-117610000D02*
X128140000Y-117610000D01*
X128860000Y-110390000D02*
X128860000Y-117610000D01*
X128140000Y-110390000D02*
X128860000Y-110390000D01*
X128140000Y-108775000D02*
X128140000Y-110390000D01*
X94085579Y-120149052D02*
X94085579Y-121353180D01*
X95905579Y-120149052D02*
X95905579Y-121353180D01*
D12*
X95885000Y-95325000D02*
X94775000Y-95325000D01*
X94775000Y-91175000D02*
X95885000Y-91175000D01*
X103725000Y-91175000D02*
X102615000Y-91175000D01*
X103725000Y-95325000D02*
X102615000Y-95325000D01*
X94775000Y-95325000D02*
X94775000Y-91175000D01*
X103725000Y-95325000D02*
X103725000Y-91175000D01*
X95885000Y-95325000D02*
X95885000Y-96450000D01*
D14*
X151140000Y-89220000D02*
X152250000Y-89220000D01*
X151140000Y-89980000D02*
X151140000Y-89220000D01*
X152813471Y-90740000D02*
X153360000Y-90740000D01*
X151140000Y-90740000D02*
X151686529Y-90740000D01*
X153360000Y-90740000D02*
X153360000Y-94485000D01*
X151140000Y-90740000D02*
X151140000Y-94485000D01*
X152557530Y-94485000D02*
X153360000Y-94485000D01*
X151140000Y-94485000D02*
X151942470Y-94485000D01*
X129140000Y-117610000D02*
X129860000Y-117610000D01*
X129140000Y-110390000D02*
X129140000Y-117610000D01*
X129860000Y-110390000D02*
X129140000Y-110390000D01*
X141860000Y-117610000D02*
X141140000Y-117610000D01*
X141860000Y-110390000D02*
X141860000Y-117610000D01*
X141140000Y-110390000D02*
X141860000Y-110390000D01*
X141140000Y-108775000D02*
X141140000Y-110390000D01*
D12*
X143000000Y-116125000D02*
X143000000Y-117725000D01*
X153075000Y-116125000D02*
X153075000Y-110375000D01*
X142425000Y-116125000D02*
X142425000Y-110375000D01*
X153075000Y-116125000D02*
X152425000Y-116125000D01*
X153075000Y-110375000D02*
X152425000Y-110375000D01*
X142425000Y-110375000D02*
X143075000Y-110375000D01*
X142425000Y-116125000D02*
X143000000Y-116125000D01*
D14*
X151803922Y-121710000D02*
X152321078Y-121710000D01*
X151803922Y-120290000D02*
X152321078Y-120290000D01*
X135400000Y-87890000D02*
X132950000Y-87890000D01*
X133600000Y-91110000D02*
X135400000Y-91110000D01*
X139600000Y-103100000D02*
X139600000Y-98000000D01*
X134400000Y-103100000D02*
X134400000Y-98000000D01*
X121350000Y-106600000D02*
X121350000Y-101500000D01*
X116150000Y-106600000D02*
X116150000Y-101500000D01*
D10*
G36*
X136565000Y-84790000D02*
X136565000Y-79710000D01*
X116880000Y-79710000D01*
X116880000Y-84790000D01*
X136565000Y-84790000D01*
G37*
X136565000Y-84790000D02*
X136565000Y-79710000D01*
X116880000Y-79710000D01*
X116880000Y-84790000D01*
X136565000Y-84790000D01*
G36*
X116880000Y-83520000D02*
X115610000Y-83520000D01*
X115610000Y-80980000D01*
X116880000Y-80980000D01*
X116880000Y-83520000D01*
G37*
X116880000Y-83520000D02*
X115610000Y-83520000D01*
X115610000Y-80980000D01*
X116880000Y-80980000D01*
X116880000Y-83520000D01*
D12*
X153583000Y-77170000D02*
X96179000Y-77170000D01*
X96179000Y-77170000D02*
X96179000Y-87330000D01*
X96179000Y-87330000D02*
X153583000Y-87330000D01*
X153583000Y-87330000D02*
X153583000Y-77170000D01*
D14*
X94460000Y-92803922D02*
X94460000Y-93321078D01*
X93040000Y-92803922D02*
X93040000Y-93321078D01*
X119710000Y-98571078D02*
X119710000Y-98053922D01*
X118290000Y-98571078D02*
X118290000Y-98053922D01*
X95460000Y-83803922D02*
X95460000Y-84321078D01*
X94040000Y-83803922D02*
X94040000Y-84321078D01*
X95460000Y-80446078D02*
X95460000Y-79928922D01*
X94040000Y-80446078D02*
X94040000Y-79928922D01*
X116290000Y-98571078D02*
X116290000Y-98053922D01*
X117710000Y-98571078D02*
X117710000Y-98053922D01*
X134303922Y-91790000D02*
X134821078Y-91790000D01*
X134303922Y-93210000D02*
X134821078Y-93210000D01*
X89040000Y-92803922D02*
X89040000Y-93321078D01*
X90460000Y-92803922D02*
X90460000Y-93321078D01*
X92460000Y-92803922D02*
X92460000Y-93321078D01*
X91040000Y-92803922D02*
X91040000Y-93321078D01*
X88460000Y-92803922D02*
X88460000Y-93321078D01*
X87040000Y-92803922D02*
X87040000Y-93321078D01*
X142290000Y-99428922D02*
X142290000Y-99946078D01*
X143710000Y-99428922D02*
X143710000Y-99946078D01*
X141710000Y-99428922D02*
X141710000Y-99946078D01*
X140290000Y-99428922D02*
X140290000Y-99946078D01*
X125540000Y-101928922D02*
X125540000Y-102446078D01*
X126960000Y-101928922D02*
X126960000Y-102446078D01*
X129540000Y-101928922D02*
X129540000Y-102446078D01*
X130960000Y-101928922D02*
X130960000Y-102446078D01*
X131540000Y-101928922D02*
X131540000Y-102446078D01*
X132960000Y-101928922D02*
X132960000Y-102446078D01*
X147790000Y-106821078D02*
X147790000Y-106303922D01*
X149210000Y-106821078D02*
X149210000Y-106303922D01*
X147210000Y-106821078D02*
X147210000Y-106303922D01*
X145790000Y-106821078D02*
X145790000Y-106303922D01*
X96434871Y-119885004D02*
X96434871Y-120402160D01*
X97854871Y-119885004D02*
X97854871Y-120402160D01*
X143650000Y-108000000D02*
X145350000Y-108000000D01*
X145350000Y-108000000D02*
X145350000Y-105450000D01*
X143650000Y-108000000D02*
X143650000Y-105450000D01*
X91160000Y-85650000D02*
X91160000Y-85270000D01*
X87110000Y-85650000D02*
X86850000Y-85650000D01*
X91160000Y-85650000D02*
X89390000Y-85650000D01*
X91160000Y-78030000D02*
X91160000Y-78410000D01*
X89390000Y-78030000D02*
X91160000Y-78030000D01*
X86850000Y-78030000D02*
X87110000Y-78030000D01*
X106440000Y-88600000D02*
X106440000Y-90500000D01*
X108760000Y-90000000D02*
X108760000Y-88600000D01*
X102002064Y-122090000D02*
X100797936Y-122090000D01*
X102002064Y-123910000D02*
X100797936Y-123910000D01*
X146747936Y-120340000D02*
X147952064Y-120340000D01*
X146747936Y-122160000D02*
X147952064Y-122160000D01*
X90540000Y-88696078D02*
X90540000Y-88178922D01*
X91960000Y-88696078D02*
X91960000Y-88178922D01*
X93960000Y-88696078D02*
X93960000Y-88178922D01*
X92540000Y-88696078D02*
X92540000Y-88178922D01*
X106303922Y-96710000D02*
X106821078Y-96710000D01*
X106303922Y-95290000D02*
X106821078Y-95290000D01*
X127540000Y-101928922D02*
X127540000Y-102446078D01*
X128960000Y-101928922D02*
X128960000Y-102446078D01*
X128991422Y-104352500D02*
X129508578Y-104352500D01*
X128991422Y-105772500D02*
X129508578Y-105772500D01*
X151258578Y-97540000D02*
X150741422Y-97540000D01*
X151258578Y-98960000D02*
X150741422Y-98960000D01*
X151053922Y-106540000D02*
X151571078Y-106540000D01*
X151053922Y-107960000D02*
X151571078Y-107960000D01*
X151571078Y-103540000D02*
X151053922Y-103540000D01*
X151571078Y-104960000D02*
X151053922Y-104960000D01*
X105710000Y-89571078D02*
X105710000Y-89053922D01*
X104290000Y-89571078D02*
X104290000Y-89053922D01*
X109540000Y-89571078D02*
X109540000Y-89053922D01*
X110960000Y-89571078D02*
X110960000Y-89053922D01*
X119710000Y-125991422D02*
X119710000Y-126508578D01*
X118290000Y-125991422D02*
X118290000Y-126508578D01*
X143477500Y-125991422D02*
X143477500Y-126508578D01*
X144897500Y-125991422D02*
X144897500Y-126508578D01*
X99819675Y-119885004D02*
X99819675Y-120402160D01*
X98399675Y-119885004D02*
X98399675Y-120402160D01*
X91944112Y-125995074D02*
X91944112Y-126512230D01*
X93364112Y-125995074D02*
X93364112Y-126512230D01*
X123900000Y-127800000D02*
X123900000Y-128450000D01*
X123900000Y-128450000D02*
X122000000Y-128450000D01*
X122000000Y-128450000D02*
X122000000Y-127800000D01*
X121200000Y-124700000D02*
X124700000Y-124700000D01*
X124700000Y-127800000D02*
X121200000Y-127800000D01*
X149950000Y-127830000D02*
X146450000Y-127830000D01*
X146450000Y-124730000D02*
X149950000Y-124730000D01*
X147250000Y-128480000D02*
X147250000Y-127830000D01*
X149150000Y-128480000D02*
X147250000Y-128480000D01*
X149150000Y-127830000D02*
X149150000Y-128480000D01*
X88450000Y-122400000D02*
X87800000Y-122400000D01*
X87800000Y-122400000D02*
X87800000Y-120500000D01*
X87800000Y-120500000D02*
X88450000Y-120500000D01*
X91550000Y-119700000D02*
X91550000Y-123200000D01*
X88450000Y-123200000D02*
X88450000Y-119700000D01*
X98200000Y-127830000D02*
X94700000Y-127830000D01*
X94700000Y-124730000D02*
X98200000Y-124730000D01*
X95500000Y-128480000D02*
X95500000Y-127830000D01*
X97400000Y-128480000D02*
X95500000Y-128480000D01*
X97400000Y-127830000D02*
X97400000Y-128480000D01*
X109000000Y-121120000D02*
X108000000Y-121120000D01*
X107000000Y-118880000D02*
X109000000Y-118880000D01*
X125060000Y-104380000D02*
X125060000Y-102620000D01*
X121990000Y-102620000D02*
X121990000Y-105050000D01*
X147560000Y-100630000D02*
X147560000Y-98870000D01*
X144490000Y-98870000D02*
X144490000Y-101300000D01*
X137790000Y-89821078D02*
X137790000Y-89303922D01*
X139210000Y-89821078D02*
X139210000Y-89303922D01*
D12*
X124261904Y-89952380D02*
X124261904Y-90761904D01*
X124309523Y-90857142D01*
X124357142Y-90904761D01*
X124452380Y-90952380D01*
X124642857Y-90952380D01*
X124738095Y-90904761D01*
X124785714Y-90857142D01*
X124833333Y-90761904D01*
X124833333Y-89952380D01*
X125833333Y-90952380D02*
X125261904Y-90952380D01*
X125547619Y-90952380D02*
X125547619Y-89952380D01*
X125452380Y-90095238D01*
X125357142Y-90190476D01*
X125261904Y-90238095D01*
X126452380Y-89952380D02*
X126547619Y-89952380D01*
X126642857Y-90000000D01*
X126690476Y-90047619D01*
X126738095Y-90142857D01*
X126785714Y-90333333D01*
X126785714Y-90571428D01*
X126738095Y-90761904D01*
X126690476Y-90857142D01*
X126642857Y-90904761D01*
X126547619Y-90952380D01*
X126452380Y-90952380D01*
X126357142Y-90904761D01*
X126309523Y-90857142D01*
X126261904Y-90761904D01*
X126214285Y-90571428D01*
X126214285Y-90333333D01*
X126261904Y-90142857D01*
X126309523Y-90047619D01*
X126357142Y-90000000D01*
X126452380Y-89952380D01*
X142666666Y-75702380D02*
X142333333Y-75226190D01*
X142095238Y-75702380D02*
X142095238Y-74702380D01*
X142476190Y-74702380D01*
X142571428Y-74750000D01*
X142619047Y-74797619D01*
X142666666Y-74892857D01*
X142666666Y-75035714D01*
X142619047Y-75130952D01*
X142571428Y-75178571D01*
X142476190Y-75226190D01*
X142095238Y-75226190D01*
X143095238Y-75178571D02*
X143428571Y-75178571D01*
X143571428Y-75702380D02*
X143095238Y-75702380D01*
X143095238Y-74702380D01*
X143571428Y-74702380D01*
X144333333Y-75178571D02*
X144000000Y-75178571D01*
X144000000Y-75702380D02*
X144000000Y-74702380D01*
X144476190Y-74702380D01*
X145000000Y-74702380D02*
X145000000Y-74940476D01*
X144761904Y-74845238D02*
X145000000Y-74940476D01*
X145238095Y-74845238D01*
X144857142Y-75130952D02*
X145000000Y-74940476D01*
X145142857Y-75130952D01*
X145761904Y-74702380D02*
X145761904Y-74940476D01*
X145523809Y-74845238D02*
X145761904Y-74940476D01*
X146000000Y-74845238D01*
X145619047Y-75130952D02*
X145761904Y-74940476D01*
X145904761Y-75130952D01*
X116916666Y-75702380D02*
X116583333Y-75226190D01*
X116345238Y-75702380D02*
X116345238Y-74702380D01*
X116726190Y-74702380D01*
X116821428Y-74750000D01*
X116869047Y-74797619D01*
X116916666Y-74892857D01*
X116916666Y-75035714D01*
X116869047Y-75130952D01*
X116821428Y-75178571D01*
X116726190Y-75226190D01*
X116345238Y-75226190D01*
X117345238Y-75178571D02*
X117678571Y-75178571D01*
X117821428Y-75702380D02*
X117345238Y-75702380D01*
X117345238Y-74702380D01*
X117821428Y-74702380D01*
X118583333Y-75178571D02*
X118250000Y-75178571D01*
X118250000Y-75702380D02*
X118250000Y-74702380D01*
X118726190Y-74702380D01*
X119250000Y-74702380D02*
X119250000Y-74940476D01*
X119011904Y-74845238D02*
X119250000Y-74940476D01*
X119488095Y-74845238D01*
X119107142Y-75130952D02*
X119250000Y-74940476D01*
X119392857Y-75130952D01*
X120011904Y-74702380D02*
X120011904Y-74940476D01*
X119773809Y-74845238D02*
X120011904Y-74940476D01*
X120250000Y-74845238D01*
X119869047Y-75130952D02*
X120011904Y-74940476D01*
X120154761Y-75130952D01*
X128452380Y-127083333D02*
X127976190Y-127416666D01*
X128452380Y-127654761D02*
X127452380Y-127654761D01*
X127452380Y-127273809D01*
X127500000Y-127178571D01*
X127547619Y-127130952D01*
X127642857Y-127083333D01*
X127785714Y-127083333D01*
X127880952Y-127130952D01*
X127928571Y-127178571D01*
X127976190Y-127273809D01*
X127976190Y-127654761D01*
X127928571Y-126654761D02*
X127928571Y-126321428D01*
X128452380Y-126178571D02*
X128452380Y-126654761D01*
X127452380Y-126654761D01*
X127452380Y-126178571D01*
X127928571Y-125416666D02*
X127928571Y-125750000D01*
X128452380Y-125750000D02*
X127452380Y-125750000D01*
X127452380Y-125273809D01*
X127452380Y-124750000D02*
X127690476Y-124750000D01*
X127595238Y-124988095D02*
X127690476Y-124750000D01*
X127595238Y-124511904D01*
X127880952Y-124892857D02*
X127690476Y-124750000D01*
X127880952Y-124607142D01*
X127452380Y-123988095D02*
X127690476Y-123988095D01*
X127595238Y-124226190D02*
X127690476Y-123988095D01*
X127595238Y-123750000D01*
X127880952Y-124130952D02*
X127690476Y-123988095D01*
X127880952Y-123845238D01*
X102952380Y-127333333D02*
X102476190Y-127666666D01*
X102952380Y-127904761D02*
X101952380Y-127904761D01*
X101952380Y-127523809D01*
X102000000Y-127428571D01*
X102047619Y-127380952D01*
X102142857Y-127333333D01*
X102285714Y-127333333D01*
X102380952Y-127380952D01*
X102428571Y-127428571D01*
X102476190Y-127523809D01*
X102476190Y-127904761D01*
X102428571Y-126904761D02*
X102428571Y-126571428D01*
X102952380Y-126428571D02*
X102952380Y-126904761D01*
X101952380Y-126904761D01*
X101952380Y-126428571D01*
X102428571Y-125666666D02*
X102428571Y-126000000D01*
X102952380Y-126000000D02*
X101952380Y-126000000D01*
X101952380Y-125523809D01*
X101952380Y-125000000D02*
X102190476Y-125000000D01*
X102095238Y-125238095D02*
X102190476Y-125000000D01*
X102095238Y-124761904D01*
X102380952Y-125142857D02*
X102190476Y-125000000D01*
X102380952Y-124857142D01*
X101952380Y-124238095D02*
X102190476Y-124238095D01*
X102095238Y-124476190D02*
X102190476Y-124238095D01*
X102095238Y-124000000D01*
X102380952Y-124380952D02*
X102190476Y-124238095D01*
X102380952Y-124095238D01*
X107952380Y-108561904D02*
X108761904Y-108561904D01*
X108857142Y-108514285D01*
X108904761Y-108466666D01*
X108952380Y-108371428D01*
X108952380Y-108180952D01*
X108904761Y-108085714D01*
X108857142Y-108038095D01*
X108761904Y-107990476D01*
X107952380Y-107990476D01*
X107952380Y-107085714D02*
X107952380Y-107276190D01*
X108000000Y-107371428D01*
X108047619Y-107419047D01*
X108190476Y-107514285D01*
X108380952Y-107561904D01*
X108761904Y-107561904D01*
X108857142Y-107514285D01*
X108904761Y-107466666D01*
X108952380Y-107371428D01*
X108952380Y-107180952D01*
X108904761Y-107085714D01*
X108857142Y-107038095D01*
X108761904Y-106990476D01*
X108523809Y-106990476D01*
X108428571Y-107038095D01*
X108380952Y-107085714D01*
X108333333Y-107180952D01*
X108333333Y-107371428D01*
X108380952Y-107466666D01*
X108428571Y-107514285D01*
X108523809Y-107561904D01*
X94817571Y-100820571D02*
X95150904Y-100820571D01*
X95293761Y-101344380D02*
X94817571Y-101344380D01*
X94817571Y-100344380D01*
X95293761Y-100344380D01*
X95674714Y-101296761D02*
X95769952Y-101344380D01*
X95960428Y-101344380D01*
X96055666Y-101296761D01*
X96103285Y-101201523D01*
X96103285Y-101153904D01*
X96055666Y-101058666D01*
X95960428Y-101011047D01*
X95817571Y-101011047D01*
X95722333Y-100963428D01*
X95674714Y-100868190D01*
X95674714Y-100820571D01*
X95722333Y-100725333D01*
X95817571Y-100677714D01*
X95960428Y-100677714D01*
X96055666Y-100725333D01*
X96531857Y-100677714D02*
X96531857Y-101677714D01*
X96531857Y-100725333D02*
X96627095Y-100677714D01*
X96817571Y-100677714D01*
X96912809Y-100725333D01*
X96960428Y-100772952D01*
X97008047Y-100868190D01*
X97008047Y-101153904D01*
X96960428Y-101249142D01*
X96912809Y-101296761D01*
X96817571Y-101344380D01*
X96627095Y-101344380D01*
X96531857Y-101296761D01*
X97436619Y-101344380D02*
X97436619Y-100677714D01*
X97436619Y-100868190D02*
X97484238Y-100772952D01*
X97531857Y-100725333D01*
X97627095Y-100677714D01*
X97722333Y-100677714D01*
X98436619Y-101296761D02*
X98341380Y-101344380D01*
X98150904Y-101344380D01*
X98055666Y-101296761D01*
X98008047Y-101201523D01*
X98008047Y-100820571D01*
X98055666Y-100725333D01*
X98150904Y-100677714D01*
X98341380Y-100677714D01*
X98436619Y-100725333D01*
X98484238Y-100820571D01*
X98484238Y-100915809D01*
X98008047Y-101011047D01*
X98865190Y-101296761D02*
X98960428Y-101344380D01*
X99150904Y-101344380D01*
X99246142Y-101296761D01*
X99293761Y-101201523D01*
X99293761Y-101153904D01*
X99246142Y-101058666D01*
X99150904Y-101011047D01*
X99008047Y-101011047D01*
X98912809Y-100963428D01*
X98865190Y-100868190D01*
X98865190Y-100820571D01*
X98912809Y-100725333D01*
X99008047Y-100677714D01*
X99150904Y-100677714D01*
X99246142Y-100725333D01*
X99674714Y-101296761D02*
X99769952Y-101344380D01*
X99960428Y-101344380D01*
X100055666Y-101296761D01*
X100103285Y-101201523D01*
X100103285Y-101153904D01*
X100055666Y-101058666D01*
X99960428Y-101011047D01*
X99817571Y-101011047D01*
X99722333Y-100963428D01*
X99674714Y-100868190D01*
X99674714Y-100820571D01*
X99722333Y-100725333D01*
X99817571Y-100677714D01*
X99960428Y-100677714D01*
X100055666Y-100725333D01*
X100531857Y-101344380D02*
X100531857Y-100677714D01*
X100531857Y-100344380D02*
X100484238Y-100392000D01*
X100531857Y-100439619D01*
X100579476Y-100392000D01*
X100531857Y-100344380D01*
X100531857Y-100439619D01*
X100865190Y-100677714D02*
X101246142Y-100677714D01*
X101008047Y-101344380D02*
X101008047Y-100487238D01*
X101055666Y-100392000D01*
X101150904Y-100344380D01*
X101246142Y-100344380D01*
X102293761Y-101296761D02*
X102436619Y-101344380D01*
X102674714Y-101344380D01*
X102769952Y-101296761D01*
X102817571Y-101249142D01*
X102865190Y-101153904D01*
X102865190Y-101058666D01*
X102817571Y-100963428D01*
X102769952Y-100915809D01*
X102674714Y-100868190D01*
X102484238Y-100820571D01*
X102389000Y-100772952D01*
X102341380Y-100725333D01*
X102293761Y-100630095D01*
X102293761Y-100534857D01*
X102341380Y-100439619D01*
X102389000Y-100392000D01*
X102484238Y-100344380D01*
X102722333Y-100344380D01*
X102865190Y-100392000D01*
X103198523Y-100677714D02*
X103436619Y-101344380D01*
X103674714Y-100677714D02*
X103436619Y-101344380D01*
X103341380Y-101582476D01*
X103293761Y-101630095D01*
X103198523Y-101677714D01*
X104008047Y-101296761D02*
X104103285Y-101344380D01*
X104293761Y-101344380D01*
X104389000Y-101296761D01*
X104436619Y-101201523D01*
X104436619Y-101153904D01*
X104389000Y-101058666D01*
X104293761Y-101011047D01*
X104150904Y-101011047D01*
X104055666Y-100963428D01*
X104008047Y-100868190D01*
X104008047Y-100820571D01*
X104055666Y-100725333D01*
X104150904Y-100677714D01*
X104293761Y-100677714D01*
X104389000Y-100725333D01*
X104722333Y-100677714D02*
X105103285Y-100677714D01*
X104865190Y-100344380D02*
X104865190Y-101201523D01*
X104912809Y-101296761D01*
X105008047Y-101344380D01*
X105103285Y-101344380D01*
X105817571Y-101296761D02*
X105722333Y-101344380D01*
X105531857Y-101344380D01*
X105436619Y-101296761D01*
X105389000Y-101201523D01*
X105389000Y-100820571D01*
X105436619Y-100725333D01*
X105531857Y-100677714D01*
X105722333Y-100677714D01*
X105817571Y-100725333D01*
X105865190Y-100820571D01*
X105865190Y-100915809D01*
X105389000Y-101011047D01*
X106293761Y-101344380D02*
X106293761Y-100677714D01*
X106293761Y-100772952D02*
X106341380Y-100725333D01*
X106436619Y-100677714D01*
X106579476Y-100677714D01*
X106674714Y-100725333D01*
X106722333Y-100820571D01*
X106722333Y-101344380D01*
X106722333Y-100820571D02*
X106769952Y-100725333D01*
X106865190Y-100677714D01*
X107008047Y-100677714D01*
X107103285Y-100725333D01*
X107150904Y-100820571D01*
X107150904Y-101344380D01*
X107579476Y-101296761D02*
X107674714Y-101344380D01*
X107865190Y-101344380D01*
X107960428Y-101296761D01*
X108008047Y-101201523D01*
X108008047Y-101153904D01*
X107960428Y-101058666D01*
X107865190Y-101011047D01*
X107722333Y-101011047D01*
X107627095Y-100963428D01*
X107579476Y-100868190D01*
X107579476Y-100820571D01*
X107627095Y-100725333D01*
X107722333Y-100677714D01*
X107865190Y-100677714D01*
X107960428Y-100725333D01*
X94793619Y-102471571D02*
X95126952Y-102471571D01*
X95269809Y-102995380D02*
X94793619Y-102995380D01*
X94793619Y-101995380D01*
X95269809Y-101995380D01*
X95650761Y-102947761D02*
X95793619Y-102995380D01*
X96031714Y-102995380D01*
X96126952Y-102947761D01*
X96174571Y-102900142D01*
X96222190Y-102804904D01*
X96222190Y-102709666D01*
X96174571Y-102614428D01*
X96126952Y-102566809D01*
X96031714Y-102519190D01*
X95841238Y-102471571D01*
X95746000Y-102423952D01*
X95698380Y-102376333D01*
X95650761Y-102281095D01*
X95650761Y-102185857D01*
X95698380Y-102090619D01*
X95746000Y-102043000D01*
X95841238Y-101995380D01*
X96079333Y-101995380D01*
X96222190Y-102043000D01*
X96650761Y-102995380D02*
X96650761Y-101995380D01*
X97031714Y-101995380D01*
X97126952Y-102043000D01*
X97174571Y-102090619D01*
X97222190Y-102185857D01*
X97222190Y-102328714D01*
X97174571Y-102423952D01*
X97126952Y-102471571D01*
X97031714Y-102519190D01*
X96650761Y-102519190D01*
X97555523Y-101995380D02*
X98174571Y-101995380D01*
X97841238Y-102376333D01*
X97984095Y-102376333D01*
X98079333Y-102423952D01*
X98126952Y-102471571D01*
X98174571Y-102566809D01*
X98174571Y-102804904D01*
X98126952Y-102900142D01*
X98079333Y-102947761D01*
X97984095Y-102995380D01*
X97698380Y-102995380D01*
X97603142Y-102947761D01*
X97555523Y-102900142D01*
X98555523Y-102090619D02*
X98603142Y-102043000D01*
X98698380Y-101995380D01*
X98936476Y-101995380D01*
X99031714Y-102043000D01*
X99079333Y-102090619D01*
X99126952Y-102185857D01*
X99126952Y-102281095D01*
X99079333Y-102423952D01*
X98507904Y-102995380D01*
X99126952Y-102995380D01*
X99555523Y-102614428D02*
X100317428Y-102614428D01*
X100698380Y-101995380D02*
X100936476Y-102995380D01*
X101126952Y-102281095D01*
X101317428Y-102995380D01*
X101555523Y-101995380D01*
X102507904Y-102995380D02*
X102174571Y-102519190D01*
X101936476Y-102995380D02*
X101936476Y-101995380D01*
X102317428Y-101995380D01*
X102412666Y-102043000D01*
X102460285Y-102090619D01*
X102507904Y-102185857D01*
X102507904Y-102328714D01*
X102460285Y-102423952D01*
X102412666Y-102471571D01*
X102317428Y-102519190D01*
X101936476Y-102519190D01*
X103126952Y-101995380D02*
X103317428Y-101995380D01*
X103412666Y-102043000D01*
X103507904Y-102138238D01*
X103555523Y-102328714D01*
X103555523Y-102662047D01*
X103507904Y-102852523D01*
X103412666Y-102947761D01*
X103317428Y-102995380D01*
X103126952Y-102995380D01*
X103031714Y-102947761D01*
X102936476Y-102852523D01*
X102888857Y-102662047D01*
X102888857Y-102328714D01*
X102936476Y-102138238D01*
X103031714Y-102043000D01*
X103126952Y-101995380D01*
X104174571Y-101995380D02*
X104365047Y-101995380D01*
X104460285Y-102043000D01*
X104555523Y-102138238D01*
X104603142Y-102328714D01*
X104603142Y-102662047D01*
X104555523Y-102852523D01*
X104460285Y-102947761D01*
X104365047Y-102995380D01*
X104174571Y-102995380D01*
X104079333Y-102947761D01*
X103984095Y-102852523D01*
X103936476Y-102662047D01*
X103936476Y-102328714D01*
X103984095Y-102138238D01*
X104079333Y-102043000D01*
X104174571Y-101995380D01*
X105031714Y-102995380D02*
X105031714Y-101995380D01*
X105365047Y-102709666D01*
X105698380Y-101995380D01*
X105698380Y-102995380D01*
X127452380Y-114761904D02*
X128261904Y-114761904D01*
X128357142Y-114714285D01*
X128404761Y-114666666D01*
X128452380Y-114571428D01*
X128452380Y-114380952D01*
X128404761Y-114285714D01*
X128357142Y-114238095D01*
X128261904Y-114190476D01*
X127452380Y-114190476D01*
X127880952Y-113571428D02*
X127833333Y-113666666D01*
X127785714Y-113714285D01*
X127690476Y-113761904D01*
X127642857Y-113761904D01*
X127547619Y-113714285D01*
X127500000Y-113666666D01*
X127452380Y-113571428D01*
X127452380Y-113380952D01*
X127500000Y-113285714D01*
X127547619Y-113238095D01*
X127642857Y-113190476D01*
X127690476Y-113190476D01*
X127785714Y-113238095D01*
X127833333Y-113285714D01*
X127880952Y-113380952D01*
X127880952Y-113571428D01*
X127928571Y-113666666D01*
X127976190Y-113714285D01*
X128071428Y-113761904D01*
X128261904Y-113761904D01*
X128357142Y-113714285D01*
X128404761Y-113666666D01*
X128452380Y-113571428D01*
X128452380Y-113380952D01*
X128404761Y-113285714D01*
X128357142Y-113238095D01*
X128261904Y-113190476D01*
X128071428Y-113190476D01*
X127976190Y-113238095D01*
X127928571Y-113285714D01*
X127880952Y-113380952D01*
X93602721Y-121393973D02*
X93650340Y-121441592D01*
X93697959Y-121584449D01*
X93697959Y-121679687D01*
X93650340Y-121822544D01*
X93555102Y-121917782D01*
X93459864Y-121965401D01*
X93269388Y-122013020D01*
X93126531Y-122013020D01*
X92936055Y-121965401D01*
X92840817Y-121917782D01*
X92745579Y-121822544D01*
X92697959Y-121679687D01*
X92697959Y-121584449D01*
X92745579Y-121441592D01*
X92793198Y-121393973D01*
X93697959Y-120441592D02*
X93697959Y-121013020D01*
X93697959Y-120727306D02*
X92697959Y-120727306D01*
X92840817Y-120822544D01*
X92936055Y-120917782D01*
X92983674Y-121013020D01*
X93697959Y-119965401D02*
X93697959Y-119774925D01*
X93650340Y-119679687D01*
X93602721Y-119632068D01*
X93459864Y-119536830D01*
X93269388Y-119489211D01*
X92888436Y-119489211D01*
X92793198Y-119536830D01*
X92745579Y-119584449D01*
X92697959Y-119679687D01*
X92697959Y-119870163D01*
X92745579Y-119965401D01*
X92793198Y-120013020D01*
X92888436Y-120060639D01*
X93126531Y-120060639D01*
X93221769Y-120013020D01*
X93269388Y-119965401D01*
X93317007Y-119870163D01*
X93317007Y-119679687D01*
X93269388Y-119584449D01*
X93221769Y-119536830D01*
X93126531Y-119489211D01*
X98238095Y-93952380D02*
X98238095Y-94761904D01*
X98285714Y-94857142D01*
X98333333Y-94904761D01*
X98428571Y-94952380D01*
X98619047Y-94952380D01*
X98714285Y-94904761D01*
X98761904Y-94857142D01*
X98809523Y-94761904D01*
X98809523Y-93952380D01*
X99714285Y-94285714D02*
X99714285Y-94952380D01*
X99476190Y-93904761D02*
X99238095Y-94619047D01*
X99857142Y-94619047D01*
X151916666Y-87737380D02*
X151916666Y-88451666D01*
X151869047Y-88594523D01*
X151773809Y-88689761D01*
X151630952Y-88737380D01*
X151535714Y-88737380D01*
X152345238Y-87832619D02*
X152392857Y-87785000D01*
X152488095Y-87737380D01*
X152726190Y-87737380D01*
X152821428Y-87785000D01*
X152869047Y-87832619D01*
X152916666Y-87927857D01*
X152916666Y-88023095D01*
X152869047Y-88165952D01*
X152297619Y-88737380D01*
X152916666Y-88737380D01*
X140452380Y-114761904D02*
X141261904Y-114761904D01*
X141357142Y-114714285D01*
X141404761Y-114666666D01*
X141452380Y-114571428D01*
X141452380Y-114380952D01*
X141404761Y-114285714D01*
X141357142Y-114238095D01*
X141261904Y-114190476D01*
X140452380Y-114190476D01*
X141452380Y-113666666D02*
X141452380Y-113476190D01*
X141404761Y-113380952D01*
X141357142Y-113333333D01*
X141214285Y-113238095D01*
X141023809Y-113190476D01*
X140642857Y-113190476D01*
X140547619Y-113238095D01*
X140500000Y-113285714D01*
X140452380Y-113380952D01*
X140452380Y-113571428D01*
X140500000Y-113666666D01*
X140547619Y-113714285D01*
X140642857Y-113761904D01*
X140880952Y-113761904D01*
X140976190Y-113714285D01*
X141023809Y-113666666D01*
X141071428Y-113571428D01*
X141071428Y-113380952D01*
X141023809Y-113285714D01*
X140976190Y-113238095D01*
X140880952Y-113190476D01*
X151452380Y-114011904D02*
X152261904Y-114011904D01*
X152357142Y-113964285D01*
X152404761Y-113916666D01*
X152452380Y-113821428D01*
X152452380Y-113630952D01*
X152404761Y-113535714D01*
X152357142Y-113488095D01*
X152261904Y-113440476D01*
X151452380Y-113440476D01*
X151452380Y-113059523D02*
X151452380Y-112392857D01*
X152452380Y-112821428D01*
X151833333Y-122952380D02*
X151500000Y-122476190D01*
X151261904Y-122952380D02*
X151261904Y-121952380D01*
X151642857Y-121952380D01*
X151738095Y-122000000D01*
X151785714Y-122047619D01*
X151833333Y-122142857D01*
X151833333Y-122285714D01*
X151785714Y-122380952D01*
X151738095Y-122428571D01*
X151642857Y-122476190D01*
X151261904Y-122476190D01*
X152738095Y-121952380D02*
X152261904Y-121952380D01*
X152214285Y-122428571D01*
X152261904Y-122380952D01*
X152357142Y-122333333D01*
X152595238Y-122333333D01*
X152690476Y-122380952D01*
X152738095Y-122428571D01*
X152785714Y-122523809D01*
X152785714Y-122761904D01*
X152738095Y-122857142D01*
X152690476Y-122904761D01*
X152595238Y-122952380D01*
X152357142Y-122952380D01*
X152261904Y-122904761D01*
X152214285Y-122857142D01*
X147416666Y-75702380D02*
X147083333Y-75226190D01*
X146845238Y-75702380D02*
X146845238Y-74702380D01*
X147226190Y-74702380D01*
X147321428Y-74750000D01*
X147369047Y-74797619D01*
X147416666Y-74892857D01*
X147416666Y-75035714D01*
X147369047Y-75130952D01*
X147321428Y-75178571D01*
X147226190Y-75226190D01*
X146845238Y-75226190D01*
X147845238Y-75178571D02*
X148178571Y-75178571D01*
X148321428Y-75702380D02*
X147845238Y-75702380D01*
X147845238Y-74702380D01*
X148321428Y-74702380D01*
X149083333Y-75178571D02*
X148750000Y-75178571D01*
X148750000Y-75702380D02*
X148750000Y-74702380D01*
X149226190Y-74702380D01*
X149750000Y-74702380D02*
X149750000Y-74940476D01*
X149511904Y-74845238D02*
X149750000Y-74940476D01*
X149988095Y-74845238D01*
X149607142Y-75130952D02*
X149750000Y-74940476D01*
X149892857Y-75130952D01*
X150511904Y-74702380D02*
X150511904Y-74940476D01*
X150273809Y-74845238D02*
X150511904Y-74940476D01*
X150750000Y-74845238D01*
X150369047Y-75130952D02*
X150511904Y-74940476D01*
X150654761Y-75130952D01*
X90916666Y-75452380D02*
X90583333Y-74976190D01*
X90345238Y-75452380D02*
X90345238Y-74452380D01*
X90726190Y-74452380D01*
X90821428Y-74500000D01*
X90869047Y-74547619D01*
X90916666Y-74642857D01*
X90916666Y-74785714D01*
X90869047Y-74880952D01*
X90821428Y-74928571D01*
X90726190Y-74976190D01*
X90345238Y-74976190D01*
X91345238Y-74928571D02*
X91678571Y-74928571D01*
X91821428Y-75452380D02*
X91345238Y-75452380D01*
X91345238Y-74452380D01*
X91821428Y-74452380D01*
X92583333Y-74928571D02*
X92250000Y-74928571D01*
X92250000Y-75452380D02*
X92250000Y-74452380D01*
X92726190Y-74452380D01*
X93250000Y-74452380D02*
X93250000Y-74690476D01*
X93011904Y-74595238D02*
X93250000Y-74690476D01*
X93488095Y-74595238D01*
X93107142Y-74880952D02*
X93250000Y-74690476D01*
X93392857Y-74880952D01*
X94011904Y-74452380D02*
X94011904Y-74690476D01*
X93773809Y-74595238D02*
X94011904Y-74690476D01*
X94250000Y-74595238D01*
X93869047Y-74880952D02*
X94011904Y-74690476D01*
X94154761Y-74880952D01*
X151166666Y-128484380D02*
X150833333Y-128008190D01*
X150595238Y-128484380D02*
X150595238Y-127484380D01*
X150976190Y-127484380D01*
X151071428Y-127532000D01*
X151119047Y-127579619D01*
X151166666Y-127674857D01*
X151166666Y-127817714D01*
X151119047Y-127912952D01*
X151071428Y-127960571D01*
X150976190Y-128008190D01*
X150595238Y-128008190D01*
X151595238Y-127960571D02*
X151928571Y-127960571D01*
X152071428Y-128484380D02*
X151595238Y-128484380D01*
X151595238Y-127484380D01*
X152071428Y-127484380D01*
X152833333Y-127960571D02*
X152500000Y-127960571D01*
X152500000Y-128484380D02*
X152500000Y-127484380D01*
X152976190Y-127484380D01*
X153500000Y-127484380D02*
X153500000Y-127722476D01*
X153261904Y-127627238D02*
X153500000Y-127722476D01*
X153738095Y-127627238D01*
X153357142Y-127912952D02*
X153500000Y-127722476D01*
X153642857Y-127912952D01*
X154261904Y-127484380D02*
X154261904Y-127722476D01*
X154023809Y-127627238D02*
X154261904Y-127722476D01*
X154500000Y-127627238D01*
X154119047Y-127912952D02*
X154261904Y-127722476D01*
X154404761Y-127912952D01*
X88166666Y-128484380D02*
X87833333Y-128008190D01*
X87595238Y-128484380D02*
X87595238Y-127484380D01*
X87976190Y-127484380D01*
X88071428Y-127532000D01*
X88119047Y-127579619D01*
X88166666Y-127674857D01*
X88166666Y-127817714D01*
X88119047Y-127912952D01*
X88071428Y-127960571D01*
X87976190Y-128008190D01*
X87595238Y-128008190D01*
X88595238Y-127960571D02*
X88928571Y-127960571D01*
X89071428Y-128484380D02*
X88595238Y-128484380D01*
X88595238Y-127484380D01*
X89071428Y-127484380D01*
X89833333Y-127960571D02*
X89500000Y-127960571D01*
X89500000Y-128484380D02*
X89500000Y-127484380D01*
X89976190Y-127484380D01*
X90500000Y-127484380D02*
X90500000Y-127722476D01*
X90261904Y-127627238D02*
X90500000Y-127722476D01*
X90738095Y-127627238D01*
X90357142Y-127912952D02*
X90500000Y-127722476D01*
X90642857Y-127912952D01*
X91261904Y-127484380D02*
X91261904Y-127722476D01*
X91023809Y-127627238D02*
X91261904Y-127722476D01*
X91500000Y-127627238D01*
X91119047Y-127912952D02*
X91261904Y-127722476D01*
X91404761Y-127912952D01*
X136402380Y-90411904D02*
X137211904Y-90411904D01*
X137307142Y-90364285D01*
X137354761Y-90316666D01*
X137402380Y-90221428D01*
X137402380Y-90030952D01*
X137354761Y-89935714D01*
X137307142Y-89888095D01*
X137211904Y-89840476D01*
X136402380Y-89840476D01*
X137402380Y-88840476D02*
X137402380Y-89411904D01*
X137402380Y-89126190D02*
X136402380Y-89126190D01*
X136545238Y-89221428D01*
X136640476Y-89316666D01*
X136688095Y-89411904D01*
X136833333Y-104452380D02*
X136357142Y-104452380D01*
X136357142Y-103452380D01*
X137119047Y-103547619D02*
X137166666Y-103500000D01*
X137261904Y-103452380D01*
X137500000Y-103452380D01*
X137595238Y-103500000D01*
X137642857Y-103547619D01*
X137690476Y-103642857D01*
X137690476Y-103738095D01*
X137642857Y-103880952D01*
X137071428Y-104452380D01*
X137690476Y-104452380D01*
X118583333Y-107952380D02*
X118107142Y-107952380D01*
X118107142Y-106952380D01*
X119440476Y-107952380D02*
X118869047Y-107952380D01*
X119154761Y-107952380D02*
X119154761Y-106952380D01*
X119059523Y-107095238D01*
X118964285Y-107190476D01*
X118869047Y-107238095D01*
X124349285Y-85988571D02*
X124492142Y-86036190D01*
X124539761Y-86083809D01*
X124587380Y-86179047D01*
X124587380Y-86321904D01*
X124539761Y-86417142D01*
X124492142Y-86464761D01*
X124396904Y-86512380D01*
X124015952Y-86512380D01*
X124015952Y-85512380D01*
X124349285Y-85512380D01*
X124444523Y-85560000D01*
X124492142Y-85607619D01*
X124539761Y-85702857D01*
X124539761Y-85798095D01*
X124492142Y-85893333D01*
X124444523Y-85940952D01*
X124349285Y-85988571D01*
X124015952Y-85988571D01*
X124873095Y-85512380D02*
X125444523Y-85512380D01*
X125158809Y-86512380D02*
X125158809Y-85512380D01*
X126301666Y-86512380D02*
X125730238Y-86512380D01*
X126015952Y-86512380D02*
X126015952Y-85512380D01*
X125920714Y-85655238D01*
X125825476Y-85750476D01*
X125730238Y-85798095D01*
X93583333Y-95607142D02*
X93535714Y-95654761D01*
X93392857Y-95702380D01*
X93297619Y-95702380D01*
X93154761Y-95654761D01*
X93059523Y-95559523D01*
X93011904Y-95464285D01*
X92964285Y-95273809D01*
X92964285Y-95130952D01*
X93011904Y-94940476D01*
X93059523Y-94845238D01*
X93154761Y-94750000D01*
X93297619Y-94702380D01*
X93392857Y-94702380D01*
X93535714Y-94750000D01*
X93583333Y-94797619D01*
X94535714Y-95702380D02*
X93964285Y-95702380D01*
X94250000Y-95702380D02*
X94250000Y-94702380D01*
X94154761Y-94845238D01*
X94059523Y-94940476D01*
X93964285Y-94988095D01*
X118833333Y-96357142D02*
X118785714Y-96404761D01*
X118642857Y-96452380D01*
X118547619Y-96452380D01*
X118404761Y-96404761D01*
X118309523Y-96309523D01*
X118261904Y-96214285D01*
X118214285Y-96023809D01*
X118214285Y-95880952D01*
X118261904Y-95690476D01*
X118309523Y-95595238D01*
X118404761Y-95500000D01*
X118547619Y-95452380D01*
X118642857Y-95452380D01*
X118785714Y-95500000D01*
X118833333Y-95547619D01*
X119214285Y-95547619D02*
X119261904Y-95500000D01*
X119357142Y-95452380D01*
X119595238Y-95452380D01*
X119690476Y-95500000D01*
X119738095Y-95547619D01*
X119785714Y-95642857D01*
X119785714Y-95738095D01*
X119738095Y-95880952D01*
X119166666Y-96452380D01*
X119785714Y-96452380D01*
X94583333Y-86732142D02*
X94535714Y-86779761D01*
X94392857Y-86827380D01*
X94297619Y-86827380D01*
X94154761Y-86779761D01*
X94059523Y-86684523D01*
X94011904Y-86589285D01*
X93964285Y-86398809D01*
X93964285Y-86255952D01*
X94011904Y-86065476D01*
X94059523Y-85970238D01*
X94154761Y-85875000D01*
X94297619Y-85827380D01*
X94392857Y-85827380D01*
X94535714Y-85875000D01*
X94583333Y-85922619D01*
X94916666Y-85827380D02*
X95535714Y-85827380D01*
X95202380Y-86208333D01*
X95345238Y-86208333D01*
X95440476Y-86255952D01*
X95488095Y-86303571D01*
X95535714Y-86398809D01*
X95535714Y-86636904D01*
X95488095Y-86732142D01*
X95440476Y-86779761D01*
X95345238Y-86827380D01*
X95059523Y-86827380D01*
X94964285Y-86779761D01*
X94916666Y-86732142D01*
X94583333Y-78232142D02*
X94535714Y-78279761D01*
X94392857Y-78327380D01*
X94297619Y-78327380D01*
X94154761Y-78279761D01*
X94059523Y-78184523D01*
X94011904Y-78089285D01*
X93964285Y-77898809D01*
X93964285Y-77755952D01*
X94011904Y-77565476D01*
X94059523Y-77470238D01*
X94154761Y-77375000D01*
X94297619Y-77327380D01*
X94392857Y-77327380D01*
X94535714Y-77375000D01*
X94583333Y-77422619D01*
X95440476Y-77660714D02*
X95440476Y-78327380D01*
X95202380Y-77279761D02*
X94964285Y-77994047D01*
X95583333Y-77994047D01*
X116833333Y-96357142D02*
X116785714Y-96404761D01*
X116642857Y-96452380D01*
X116547619Y-96452380D01*
X116404761Y-96404761D01*
X116309523Y-96309523D01*
X116261904Y-96214285D01*
X116214285Y-96023809D01*
X116214285Y-95880952D01*
X116261904Y-95690476D01*
X116309523Y-95595238D01*
X116404761Y-95500000D01*
X116547619Y-95452380D01*
X116642857Y-95452380D01*
X116785714Y-95500000D01*
X116833333Y-95547619D01*
X117738095Y-95452380D02*
X117261904Y-95452380D01*
X117214285Y-95928571D01*
X117261904Y-95880952D01*
X117357142Y-95833333D01*
X117595238Y-95833333D01*
X117690476Y-95880952D01*
X117738095Y-95928571D01*
X117785714Y-96023809D01*
X117785714Y-96261904D01*
X117738095Y-96357142D01*
X117690476Y-96404761D01*
X117595238Y-96452380D01*
X117357142Y-96452380D01*
X117261904Y-96404761D01*
X117214285Y-96357142D01*
X134333333Y-94357142D02*
X134285714Y-94404761D01*
X134142857Y-94452380D01*
X134047619Y-94452380D01*
X133904761Y-94404761D01*
X133809523Y-94309523D01*
X133761904Y-94214285D01*
X133714285Y-94023809D01*
X133714285Y-93880952D01*
X133761904Y-93690476D01*
X133809523Y-93595238D01*
X133904761Y-93500000D01*
X134047619Y-93452380D01*
X134142857Y-93452380D01*
X134285714Y-93500000D01*
X134333333Y-93547619D01*
X135190476Y-93452380D02*
X135000000Y-93452380D01*
X134904761Y-93500000D01*
X134857142Y-93547619D01*
X134761904Y-93690476D01*
X134714285Y-93880952D01*
X134714285Y-94261904D01*
X134761904Y-94357142D01*
X134809523Y-94404761D01*
X134904761Y-94452380D01*
X135095238Y-94452380D01*
X135190476Y-94404761D01*
X135238095Y-94357142D01*
X135285714Y-94261904D01*
X135285714Y-94023809D01*
X135238095Y-93928571D01*
X135190476Y-93880952D01*
X135095238Y-93833333D01*
X134904761Y-93833333D01*
X134809523Y-93880952D01*
X134761904Y-93928571D01*
X134714285Y-94023809D01*
X89583333Y-95857142D02*
X89535714Y-95904761D01*
X89392857Y-95952380D01*
X89297619Y-95952380D01*
X89154761Y-95904761D01*
X89059523Y-95809523D01*
X89011904Y-95714285D01*
X88964285Y-95523809D01*
X88964285Y-95380952D01*
X89011904Y-95190476D01*
X89059523Y-95095238D01*
X89154761Y-95000000D01*
X89297619Y-94952380D01*
X89392857Y-94952380D01*
X89535714Y-95000000D01*
X89583333Y-95047619D01*
X90154761Y-95380952D02*
X90059523Y-95333333D01*
X90011904Y-95285714D01*
X89964285Y-95190476D01*
X89964285Y-95142857D01*
X90011904Y-95047619D01*
X90059523Y-95000000D01*
X90154761Y-94952380D01*
X90345238Y-94952380D01*
X90440476Y-95000000D01*
X90488095Y-95047619D01*
X90535714Y-95142857D01*
X90535714Y-95190476D01*
X90488095Y-95285714D01*
X90440476Y-95333333D01*
X90345238Y-95380952D01*
X90154761Y-95380952D01*
X90059523Y-95428571D01*
X90011904Y-95476190D01*
X89964285Y-95571428D01*
X89964285Y-95761904D01*
X90011904Y-95857142D01*
X90059523Y-95904761D01*
X90154761Y-95952380D01*
X90345238Y-95952380D01*
X90440476Y-95904761D01*
X90488095Y-95857142D01*
X90535714Y-95761904D01*
X90535714Y-95571428D01*
X90488095Y-95476190D01*
X90440476Y-95428571D01*
X90345238Y-95380952D01*
X91583333Y-95607142D02*
X91535714Y-95654761D01*
X91392857Y-95702380D01*
X91297619Y-95702380D01*
X91154761Y-95654761D01*
X91059523Y-95559523D01*
X91011904Y-95464285D01*
X90964285Y-95273809D01*
X90964285Y-95130952D01*
X91011904Y-94940476D01*
X91059523Y-94845238D01*
X91154761Y-94750000D01*
X91297619Y-94702380D01*
X91392857Y-94702380D01*
X91535714Y-94750000D01*
X91583333Y-94797619D01*
X92059523Y-95702380D02*
X92250000Y-95702380D01*
X92345238Y-95654761D01*
X92392857Y-95607142D01*
X92488095Y-95464285D01*
X92535714Y-95273809D01*
X92535714Y-94892857D01*
X92488095Y-94797619D01*
X92440476Y-94750000D01*
X92345238Y-94702380D01*
X92154761Y-94702380D01*
X92059523Y-94750000D01*
X92011904Y-94797619D01*
X91964285Y-94892857D01*
X91964285Y-95130952D01*
X92011904Y-95226190D01*
X92059523Y-95273809D01*
X92154761Y-95321428D01*
X92345238Y-95321428D01*
X92440476Y-95273809D01*
X92488095Y-95226190D01*
X92535714Y-95130952D01*
X88107142Y-90392857D02*
X88154761Y-90440476D01*
X88202380Y-90583333D01*
X88202380Y-90678571D01*
X88154761Y-90821428D01*
X88059523Y-90916666D01*
X87964285Y-90964285D01*
X87773809Y-91011904D01*
X87630952Y-91011904D01*
X87440476Y-90964285D01*
X87345238Y-90916666D01*
X87250000Y-90821428D01*
X87202380Y-90678571D01*
X87202380Y-90583333D01*
X87250000Y-90440476D01*
X87297619Y-90392857D01*
X88202380Y-89440476D02*
X88202380Y-90011904D01*
X88202380Y-89726190D02*
X87202380Y-89726190D01*
X87345238Y-89821428D01*
X87440476Y-89916666D01*
X87488095Y-90011904D01*
X87202380Y-88821428D02*
X87202380Y-88726190D01*
X87250000Y-88630952D01*
X87297619Y-88583333D01*
X87392857Y-88535714D01*
X87583333Y-88488095D01*
X87821428Y-88488095D01*
X88011904Y-88535714D01*
X88107142Y-88583333D01*
X88154761Y-88630952D01*
X88202380Y-88726190D01*
X88202380Y-88821428D01*
X88154761Y-88916666D01*
X88107142Y-88964285D01*
X88011904Y-89011904D01*
X87821428Y-89059523D01*
X87583333Y-89059523D01*
X87392857Y-89011904D01*
X87297619Y-88964285D01*
X87250000Y-88916666D01*
X87202380Y-88821428D01*
X143357142Y-97142857D02*
X143404761Y-97190476D01*
X143452380Y-97333333D01*
X143452380Y-97428571D01*
X143404761Y-97571428D01*
X143309523Y-97666666D01*
X143214285Y-97714285D01*
X143023809Y-97761904D01*
X142880952Y-97761904D01*
X142690476Y-97714285D01*
X142595238Y-97666666D01*
X142500000Y-97571428D01*
X142452380Y-97428571D01*
X142452380Y-97333333D01*
X142500000Y-97190476D01*
X142547619Y-97142857D01*
X143452380Y-96190476D02*
X143452380Y-96761904D01*
X143452380Y-96476190D02*
X142452380Y-96476190D01*
X142595238Y-96571428D01*
X142690476Y-96666666D01*
X142738095Y-96761904D01*
X143452380Y-95238095D02*
X143452380Y-95809523D01*
X143452380Y-95523809D02*
X142452380Y-95523809D01*
X142595238Y-95619047D01*
X142690476Y-95714285D01*
X142738095Y-95809523D01*
X141357142Y-97142857D02*
X141404761Y-97190476D01*
X141452380Y-97333333D01*
X141452380Y-97428571D01*
X141404761Y-97571428D01*
X141309523Y-97666666D01*
X141214285Y-97714285D01*
X141023809Y-97761904D01*
X140880952Y-97761904D01*
X140690476Y-97714285D01*
X140595238Y-97666666D01*
X140500000Y-97571428D01*
X140452380Y-97428571D01*
X140452380Y-97333333D01*
X140500000Y-97190476D01*
X140547619Y-97142857D01*
X141452380Y-96190476D02*
X141452380Y-96761904D01*
X141452380Y-96476190D02*
X140452380Y-96476190D01*
X140595238Y-96571428D01*
X140690476Y-96666666D01*
X140738095Y-96761904D01*
X140547619Y-95809523D02*
X140500000Y-95761904D01*
X140452380Y-95666666D01*
X140452380Y-95428571D01*
X140500000Y-95333333D01*
X140547619Y-95285714D01*
X140642857Y-95238095D01*
X140738095Y-95238095D01*
X140880952Y-95285714D01*
X141452380Y-95857142D01*
X141452380Y-95238095D01*
X126607142Y-99642857D02*
X126654761Y-99690476D01*
X126702380Y-99833333D01*
X126702380Y-99928571D01*
X126654761Y-100071428D01*
X126559523Y-100166666D01*
X126464285Y-100214285D01*
X126273809Y-100261904D01*
X126130952Y-100261904D01*
X125940476Y-100214285D01*
X125845238Y-100166666D01*
X125750000Y-100071428D01*
X125702380Y-99928571D01*
X125702380Y-99833333D01*
X125750000Y-99690476D01*
X125797619Y-99642857D01*
X126702380Y-98690476D02*
X126702380Y-99261904D01*
X126702380Y-98976190D02*
X125702380Y-98976190D01*
X125845238Y-99071428D01*
X125940476Y-99166666D01*
X125988095Y-99261904D01*
X125702380Y-98357142D02*
X125702380Y-97738095D01*
X126083333Y-98071428D01*
X126083333Y-97928571D01*
X126130952Y-97833333D01*
X126178571Y-97785714D01*
X126273809Y-97738095D01*
X126511904Y-97738095D01*
X126607142Y-97785714D01*
X126654761Y-97833333D01*
X126702380Y-97928571D01*
X126702380Y-98214285D01*
X126654761Y-98309523D01*
X126607142Y-98357142D01*
X130607142Y-99392857D02*
X130654761Y-99440476D01*
X130702380Y-99583333D01*
X130702380Y-99678571D01*
X130654761Y-99821428D01*
X130559523Y-99916666D01*
X130464285Y-99964285D01*
X130273809Y-100011904D01*
X130130952Y-100011904D01*
X129940476Y-99964285D01*
X129845238Y-99916666D01*
X129750000Y-99821428D01*
X129702380Y-99678571D01*
X129702380Y-99583333D01*
X129750000Y-99440476D01*
X129797619Y-99392857D01*
X130702380Y-98440476D02*
X130702380Y-99011904D01*
X130702380Y-98726190D02*
X129702380Y-98726190D01*
X129845238Y-98821428D01*
X129940476Y-98916666D01*
X129988095Y-99011904D01*
X130035714Y-97583333D02*
X130702380Y-97583333D01*
X129654761Y-97821428D02*
X130369047Y-98059523D01*
X130369047Y-97440476D01*
X132607142Y-99517857D02*
X132654761Y-99565476D01*
X132702380Y-99708333D01*
X132702380Y-99803571D01*
X132654761Y-99946428D01*
X132559523Y-100041666D01*
X132464285Y-100089285D01*
X132273809Y-100136904D01*
X132130952Y-100136904D01*
X131940476Y-100089285D01*
X131845238Y-100041666D01*
X131750000Y-99946428D01*
X131702380Y-99803571D01*
X131702380Y-99708333D01*
X131750000Y-99565476D01*
X131797619Y-99517857D01*
X132702380Y-98565476D02*
X132702380Y-99136904D01*
X132702380Y-98851190D02*
X131702380Y-98851190D01*
X131845238Y-98946428D01*
X131940476Y-99041666D01*
X131988095Y-99136904D01*
X131702380Y-97660714D02*
X131702380Y-98136904D01*
X132178571Y-98184523D01*
X132130952Y-98136904D01*
X132083333Y-98041666D01*
X132083333Y-97803571D01*
X132130952Y-97708333D01*
X132178571Y-97660714D01*
X132273809Y-97613095D01*
X132511904Y-97613095D01*
X132607142Y-97660714D01*
X132654761Y-97708333D01*
X132702380Y-97803571D01*
X132702380Y-98041666D01*
X132654761Y-98136904D01*
X132607142Y-98184523D01*
X148857142Y-104142857D02*
X148904761Y-104190476D01*
X148952380Y-104333333D01*
X148952380Y-104428571D01*
X148904761Y-104571428D01*
X148809523Y-104666666D01*
X148714285Y-104714285D01*
X148523809Y-104761904D01*
X148380952Y-104761904D01*
X148190476Y-104714285D01*
X148095238Y-104666666D01*
X148000000Y-104571428D01*
X147952380Y-104428571D01*
X147952380Y-104333333D01*
X148000000Y-104190476D01*
X148047619Y-104142857D01*
X148952380Y-103190476D02*
X148952380Y-103761904D01*
X148952380Y-103476190D02*
X147952380Y-103476190D01*
X148095238Y-103571428D01*
X148190476Y-103666666D01*
X148238095Y-103761904D01*
X147952380Y-102333333D02*
X147952380Y-102523809D01*
X148000000Y-102619047D01*
X148047619Y-102666666D01*
X148190476Y-102761904D01*
X148380952Y-102809523D01*
X148761904Y-102809523D01*
X148857142Y-102761904D01*
X148904761Y-102714285D01*
X148952380Y-102619047D01*
X148952380Y-102428571D01*
X148904761Y-102333333D01*
X148857142Y-102285714D01*
X148761904Y-102238095D01*
X148523809Y-102238095D01*
X148428571Y-102285714D01*
X148380952Y-102333333D01*
X148333333Y-102428571D01*
X148333333Y-102619047D01*
X148380952Y-102714285D01*
X148428571Y-102761904D01*
X148523809Y-102809523D01*
X146857142Y-104142857D02*
X146904761Y-104190476D01*
X146952380Y-104333333D01*
X146952380Y-104428571D01*
X146904761Y-104571428D01*
X146809523Y-104666666D01*
X146714285Y-104714285D01*
X146523809Y-104761904D01*
X146380952Y-104761904D01*
X146190476Y-104714285D01*
X146095238Y-104666666D01*
X146000000Y-104571428D01*
X145952380Y-104428571D01*
X145952380Y-104333333D01*
X146000000Y-104190476D01*
X146047619Y-104142857D01*
X146952380Y-103190476D02*
X146952380Y-103761904D01*
X146952380Y-103476190D02*
X145952380Y-103476190D01*
X146095238Y-103571428D01*
X146190476Y-103666666D01*
X146238095Y-103761904D01*
X145952380Y-102857142D02*
X145952380Y-102190476D01*
X146952380Y-102619047D01*
X97616150Y-123775004D02*
X97663769Y-123822623D01*
X97711388Y-123965480D01*
X97711388Y-124060718D01*
X97663769Y-124203575D01*
X97568531Y-124298813D01*
X97473293Y-124346432D01*
X97282817Y-124394051D01*
X97139960Y-124394051D01*
X96949484Y-124346432D01*
X96854246Y-124298813D01*
X96759008Y-124203575D01*
X96711388Y-124060718D01*
X96711388Y-123965480D01*
X96759008Y-123822623D01*
X96806627Y-123775004D01*
X97711388Y-122822623D02*
X97711388Y-123394051D01*
X97711388Y-123108337D02*
X96711388Y-123108337D01*
X96854246Y-123203575D01*
X96949484Y-123298813D01*
X96997103Y-123394051D01*
X97139960Y-122251194D02*
X97092341Y-122346432D01*
X97044722Y-122394051D01*
X96949484Y-122441670D01*
X96901865Y-122441670D01*
X96806627Y-122394051D01*
X96759008Y-122346432D01*
X96711388Y-122251194D01*
X96711388Y-122060718D01*
X96759008Y-121965480D01*
X96806627Y-121917861D01*
X96901865Y-121870242D01*
X96949484Y-121870242D01*
X97044722Y-121917861D01*
X97092341Y-121965480D01*
X97139960Y-122060718D01*
X97139960Y-122251194D01*
X97187579Y-122346432D01*
X97235198Y-122394051D01*
X97330436Y-122441670D01*
X97520912Y-122441670D01*
X97616150Y-122394051D01*
X97663769Y-122346432D01*
X97711388Y-122251194D01*
X97711388Y-122060718D01*
X97663769Y-121965480D01*
X97616150Y-121917861D01*
X97520912Y-121870242D01*
X97330436Y-121870242D01*
X97235198Y-121917861D01*
X97187579Y-121965480D01*
X97139960Y-122060718D01*
X144952380Y-104738095D02*
X143952380Y-104738095D01*
X143952380Y-104500000D01*
X144000000Y-104357142D01*
X144095238Y-104261904D01*
X144190476Y-104214285D01*
X144380952Y-104166666D01*
X144523809Y-104166666D01*
X144714285Y-104214285D01*
X144809523Y-104261904D01*
X144904761Y-104357142D01*
X144952380Y-104500000D01*
X144952380Y-104738095D01*
X144952380Y-103214285D02*
X144952380Y-103785714D01*
X144952380Y-103500000D02*
X143952380Y-103500000D01*
X144095238Y-103595238D01*
X144190476Y-103690476D01*
X144238095Y-103785714D01*
X90366666Y-76202380D02*
X90366666Y-76916666D01*
X90319047Y-77059523D01*
X90223809Y-77154761D01*
X90080952Y-77202380D01*
X89985714Y-77202380D01*
X91366666Y-77202380D02*
X90795238Y-77202380D01*
X91080952Y-77202380D02*
X91080952Y-76202380D01*
X90985714Y-76345238D01*
X90890476Y-76440476D01*
X90795238Y-76488095D01*
X107404761Y-92147619D02*
X107309523Y-92100000D01*
X107214285Y-92004761D01*
X107071428Y-91861904D01*
X106976190Y-91814285D01*
X106880952Y-91814285D01*
X106928571Y-92052380D02*
X106833333Y-92004761D01*
X106738095Y-91909523D01*
X106690476Y-91719047D01*
X106690476Y-91385714D01*
X106738095Y-91195238D01*
X106833333Y-91100000D01*
X106928571Y-91052380D01*
X107119047Y-91052380D01*
X107214285Y-91100000D01*
X107309523Y-91195238D01*
X107357142Y-91385714D01*
X107357142Y-91719047D01*
X107309523Y-91909523D01*
X107214285Y-92004761D01*
X107119047Y-92052380D01*
X106928571Y-92052380D01*
X108309523Y-92052380D02*
X107738095Y-92052380D01*
X108023809Y-92052380D02*
X108023809Y-91052380D01*
X107928571Y-91195238D01*
X107833333Y-91290476D01*
X107738095Y-91338095D01*
X98952380Y-123166666D02*
X98476190Y-123500000D01*
X98952380Y-123738095D02*
X97952380Y-123738095D01*
X97952380Y-123357142D01*
X98000000Y-123261904D01*
X98047619Y-123214285D01*
X98142857Y-123166666D01*
X98285714Y-123166666D01*
X98380952Y-123214285D01*
X98428571Y-123261904D01*
X98476190Y-123357142D01*
X98476190Y-123738095D01*
X98952380Y-122214285D02*
X98952380Y-122785714D01*
X98952380Y-122500000D02*
X97952380Y-122500000D01*
X98095238Y-122595238D01*
X98190476Y-122690476D01*
X98238095Y-122785714D01*
X147183333Y-123452380D02*
X146850000Y-122976190D01*
X146611904Y-123452380D02*
X146611904Y-122452380D01*
X146992857Y-122452380D01*
X147088095Y-122500000D01*
X147135714Y-122547619D01*
X147183333Y-122642857D01*
X147183333Y-122785714D01*
X147135714Y-122880952D01*
X147088095Y-122928571D01*
X146992857Y-122976190D01*
X146611904Y-122976190D01*
X147564285Y-122547619D02*
X147611904Y-122500000D01*
X147707142Y-122452380D01*
X147945238Y-122452380D01*
X148040476Y-122500000D01*
X148088095Y-122547619D01*
X148135714Y-122642857D01*
X148135714Y-122738095D01*
X148088095Y-122880952D01*
X147516666Y-123452380D01*
X148135714Y-123452380D01*
X91083333Y-91202380D02*
X90750000Y-90726190D01*
X90511904Y-91202380D02*
X90511904Y-90202380D01*
X90892857Y-90202380D01*
X90988095Y-90250000D01*
X91035714Y-90297619D01*
X91083333Y-90392857D01*
X91083333Y-90535714D01*
X91035714Y-90630952D01*
X90988095Y-90678571D01*
X90892857Y-90726190D01*
X90511904Y-90726190D01*
X91416666Y-90202380D02*
X92035714Y-90202380D01*
X91702380Y-90583333D01*
X91845238Y-90583333D01*
X91940476Y-90630952D01*
X91988095Y-90678571D01*
X92035714Y-90773809D01*
X92035714Y-91011904D01*
X91988095Y-91107142D01*
X91940476Y-91154761D01*
X91845238Y-91202380D01*
X91559523Y-91202380D01*
X91464285Y-91154761D01*
X91416666Y-91107142D01*
X93083333Y-91202380D02*
X92750000Y-90726190D01*
X92511904Y-91202380D02*
X92511904Y-90202380D01*
X92892857Y-90202380D01*
X92988095Y-90250000D01*
X93035714Y-90297619D01*
X93083333Y-90392857D01*
X93083333Y-90535714D01*
X93035714Y-90630952D01*
X92988095Y-90678571D01*
X92892857Y-90726190D01*
X92511904Y-90726190D01*
X93940476Y-90535714D02*
X93940476Y-91202380D01*
X93702380Y-90154761D02*
X93464285Y-90869047D01*
X94083333Y-90869047D01*
X109452380Y-96166666D02*
X108976190Y-96500000D01*
X109452380Y-96738095D02*
X108452380Y-96738095D01*
X108452380Y-96357142D01*
X108500000Y-96261904D01*
X108547619Y-96214285D01*
X108642857Y-96166666D01*
X108785714Y-96166666D01*
X108880952Y-96214285D01*
X108928571Y-96261904D01*
X108976190Y-96357142D01*
X108976190Y-96738095D01*
X108452380Y-95309523D02*
X108452380Y-95500000D01*
X108500000Y-95595238D01*
X108547619Y-95642857D01*
X108690476Y-95738095D01*
X108880952Y-95785714D01*
X109261904Y-95785714D01*
X109357142Y-95738095D01*
X109404761Y-95690476D01*
X109452380Y-95595238D01*
X109452380Y-95404761D01*
X109404761Y-95309523D01*
X109357142Y-95261904D01*
X109261904Y-95214285D01*
X109023809Y-95214285D01*
X108928571Y-95261904D01*
X108880952Y-95309523D01*
X108833333Y-95404761D01*
X108833333Y-95595238D01*
X108880952Y-95690476D01*
X108928571Y-95738095D01*
X109023809Y-95785714D01*
X128702380Y-99666666D02*
X128226190Y-100000000D01*
X128702380Y-100238095D02*
X127702380Y-100238095D01*
X127702380Y-99857142D01*
X127750000Y-99761904D01*
X127797619Y-99714285D01*
X127892857Y-99666666D01*
X128035714Y-99666666D01*
X128130952Y-99714285D01*
X128178571Y-99761904D01*
X128226190Y-99857142D01*
X128226190Y-100238095D01*
X127702380Y-99333333D02*
X127702380Y-98666666D01*
X128702380Y-99095238D01*
X129083333Y-107202380D02*
X128750000Y-106726190D01*
X128511904Y-107202380D02*
X128511904Y-106202380D01*
X128892857Y-106202380D01*
X128988095Y-106250000D01*
X129035714Y-106297619D01*
X129083333Y-106392857D01*
X129083333Y-106535714D01*
X129035714Y-106630952D01*
X128988095Y-106678571D01*
X128892857Y-106726190D01*
X128511904Y-106726190D01*
X129654761Y-106630952D02*
X129559523Y-106583333D01*
X129511904Y-106535714D01*
X129464285Y-106440476D01*
X129464285Y-106392857D01*
X129511904Y-106297619D01*
X129559523Y-106250000D01*
X129654761Y-106202380D01*
X129845238Y-106202380D01*
X129940476Y-106250000D01*
X129988095Y-106297619D01*
X130035714Y-106392857D01*
X130035714Y-106440476D01*
X129988095Y-106535714D01*
X129940476Y-106583333D01*
X129845238Y-106630952D01*
X129654761Y-106630952D01*
X129559523Y-106678571D01*
X129511904Y-106726190D01*
X129464285Y-106821428D01*
X129464285Y-107011904D01*
X129511904Y-107107142D01*
X129559523Y-107154761D01*
X129654761Y-107202380D01*
X129845238Y-107202380D01*
X129940476Y-107154761D01*
X129988095Y-107107142D01*
X130035714Y-107011904D01*
X130035714Y-106821428D01*
X129988095Y-106726190D01*
X129940476Y-106678571D01*
X129845238Y-106630952D01*
X150833333Y-100352380D02*
X150500000Y-99876190D01*
X150261904Y-100352380D02*
X150261904Y-99352380D01*
X150642857Y-99352380D01*
X150738095Y-99400000D01*
X150785714Y-99447619D01*
X150833333Y-99542857D01*
X150833333Y-99685714D01*
X150785714Y-99780952D01*
X150738095Y-99828571D01*
X150642857Y-99876190D01*
X150261904Y-99876190D01*
X151309523Y-100352380D02*
X151500000Y-100352380D01*
X151595238Y-100304761D01*
X151642857Y-100257142D01*
X151738095Y-100114285D01*
X151785714Y-99923809D01*
X151785714Y-99542857D01*
X151738095Y-99447619D01*
X151690476Y-99400000D01*
X151595238Y-99352380D01*
X151404761Y-99352380D01*
X151309523Y-99400000D01*
X151261904Y-99447619D01*
X151214285Y-99542857D01*
X151214285Y-99780952D01*
X151261904Y-99876190D01*
X151309523Y-99923809D01*
X151404761Y-99971428D01*
X151595238Y-99971428D01*
X151690476Y-99923809D01*
X151738095Y-99876190D01*
X151785714Y-99780952D01*
X150607142Y-106202380D02*
X150273809Y-105726190D01*
X150035714Y-106202380D02*
X150035714Y-105202380D01*
X150416666Y-105202380D01*
X150511904Y-105250000D01*
X150559523Y-105297619D01*
X150607142Y-105392857D01*
X150607142Y-105535714D01*
X150559523Y-105630952D01*
X150511904Y-105678571D01*
X150416666Y-105726190D01*
X150035714Y-105726190D01*
X151559523Y-106202380D02*
X150988095Y-106202380D01*
X151273809Y-106202380D02*
X151273809Y-105202380D01*
X151178571Y-105345238D01*
X151083333Y-105440476D01*
X150988095Y-105488095D01*
X152178571Y-105202380D02*
X152273809Y-105202380D01*
X152369047Y-105250000D01*
X152416666Y-105297619D01*
X152464285Y-105392857D01*
X152511904Y-105583333D01*
X152511904Y-105821428D01*
X152464285Y-106011904D01*
X152416666Y-106107142D01*
X152369047Y-106154761D01*
X152273809Y-106202380D01*
X152178571Y-106202380D01*
X152083333Y-106154761D01*
X152035714Y-106107142D01*
X151988095Y-106011904D01*
X151940476Y-105821428D01*
X151940476Y-105583333D01*
X151988095Y-105392857D01*
X152035714Y-105297619D01*
X152083333Y-105250000D01*
X152178571Y-105202380D01*
X150607142Y-103202380D02*
X150273809Y-102726190D01*
X150035714Y-103202380D02*
X150035714Y-102202380D01*
X150416666Y-102202380D01*
X150511904Y-102250000D01*
X150559523Y-102297619D01*
X150607142Y-102392857D01*
X150607142Y-102535714D01*
X150559523Y-102630952D01*
X150511904Y-102678571D01*
X150416666Y-102726190D01*
X150035714Y-102726190D01*
X151559523Y-103202380D02*
X150988095Y-103202380D01*
X151273809Y-103202380D02*
X151273809Y-102202380D01*
X151178571Y-102345238D01*
X151083333Y-102440476D01*
X150988095Y-102488095D01*
X152511904Y-103202380D02*
X151940476Y-103202380D01*
X152226190Y-103202380D02*
X152226190Y-102202380D01*
X152130952Y-102345238D01*
X152035714Y-102440476D01*
X151940476Y-102488095D01*
X103802380Y-89955357D02*
X103326190Y-90288690D01*
X103802380Y-90526785D02*
X102802380Y-90526785D01*
X102802380Y-90145833D01*
X102850000Y-90050595D01*
X102897619Y-90002976D01*
X102992857Y-89955357D01*
X103135714Y-89955357D01*
X103230952Y-90002976D01*
X103278571Y-90050595D01*
X103326190Y-90145833D01*
X103326190Y-90526785D01*
X103802380Y-89002976D02*
X103802380Y-89574404D01*
X103802380Y-89288690D02*
X102802380Y-89288690D01*
X102945238Y-89383928D01*
X103040476Y-89479166D01*
X103088095Y-89574404D01*
X102897619Y-88622023D02*
X102850000Y-88574404D01*
X102802380Y-88479166D01*
X102802380Y-88241071D01*
X102850000Y-88145833D01*
X102897619Y-88098214D01*
X102992857Y-88050595D01*
X103088095Y-88050595D01*
X103230952Y-88098214D01*
X103802380Y-88669642D01*
X103802380Y-88050595D01*
X112452380Y-89892857D02*
X111976190Y-90226190D01*
X112452380Y-90464285D02*
X111452380Y-90464285D01*
X111452380Y-90083333D01*
X111500000Y-89988095D01*
X111547619Y-89940476D01*
X111642857Y-89892857D01*
X111785714Y-89892857D01*
X111880952Y-89940476D01*
X111928571Y-89988095D01*
X111976190Y-90083333D01*
X111976190Y-90464285D01*
X112452380Y-88940476D02*
X112452380Y-89511904D01*
X112452380Y-89226190D02*
X111452380Y-89226190D01*
X111595238Y-89321428D01*
X111690476Y-89416666D01*
X111738095Y-89511904D01*
X111452380Y-88607142D02*
X111452380Y-87988095D01*
X111833333Y-88321428D01*
X111833333Y-88178571D01*
X111880952Y-88083333D01*
X111928571Y-88035714D01*
X112023809Y-87988095D01*
X112261904Y-87988095D01*
X112357142Y-88035714D01*
X112404761Y-88083333D01*
X112452380Y-88178571D01*
X112452380Y-88464285D01*
X112404761Y-88559523D01*
X112357142Y-88607142D01*
X117702380Y-126892857D02*
X117226190Y-127226190D01*
X117702380Y-127464285D02*
X116702380Y-127464285D01*
X116702380Y-127083333D01*
X116750000Y-126988095D01*
X116797619Y-126940476D01*
X116892857Y-126892857D01*
X117035714Y-126892857D01*
X117130952Y-126940476D01*
X117178571Y-126988095D01*
X117226190Y-127083333D01*
X117226190Y-127464285D01*
X117702380Y-125940476D02*
X117702380Y-126511904D01*
X117702380Y-126226190D02*
X116702380Y-126226190D01*
X116845238Y-126321428D01*
X116940476Y-126416666D01*
X116988095Y-126511904D01*
X117035714Y-125083333D02*
X117702380Y-125083333D01*
X116654761Y-125321428D02*
X117369047Y-125559523D01*
X117369047Y-124940476D01*
X143139880Y-126892857D02*
X142663690Y-127226190D01*
X143139880Y-127464285D02*
X142139880Y-127464285D01*
X142139880Y-127083333D01*
X142187500Y-126988095D01*
X142235119Y-126940476D01*
X142330357Y-126892857D01*
X142473214Y-126892857D01*
X142568452Y-126940476D01*
X142616071Y-126988095D01*
X142663690Y-127083333D01*
X142663690Y-127464285D01*
X143139880Y-125940476D02*
X143139880Y-126511904D01*
X143139880Y-126226190D02*
X142139880Y-126226190D01*
X142282738Y-126321428D01*
X142377976Y-126416666D01*
X142425595Y-126511904D01*
X142139880Y-125035714D02*
X142139880Y-125511904D01*
X142616071Y-125559523D01*
X142568452Y-125511904D01*
X142520833Y-125416666D01*
X142520833Y-125178571D01*
X142568452Y-125083333D01*
X142616071Y-125035714D01*
X142711309Y-124988095D01*
X142949404Y-124988095D01*
X143044642Y-125035714D01*
X143092261Y-125083333D01*
X143139880Y-125178571D01*
X143139880Y-125416666D01*
X143092261Y-125511904D01*
X143044642Y-125559523D01*
X101212055Y-120786439D02*
X100735865Y-121119772D01*
X101212055Y-121357867D02*
X100212055Y-121357867D01*
X100212055Y-120976915D01*
X100259675Y-120881677D01*
X100307294Y-120834058D01*
X100402532Y-120786439D01*
X100545389Y-120786439D01*
X100640627Y-120834058D01*
X100688246Y-120881677D01*
X100735865Y-120976915D01*
X100735865Y-121357867D01*
X101212055Y-119834058D02*
X101212055Y-120405486D01*
X101212055Y-120119772D02*
X100212055Y-120119772D01*
X100354913Y-120215010D01*
X100450151Y-120310248D01*
X100497770Y-120405486D01*
X100212055Y-118976915D02*
X100212055Y-119167391D01*
X100259675Y-119262629D01*
X100307294Y-119310248D01*
X100450151Y-119405486D01*
X100640627Y-119453105D01*
X101021579Y-119453105D01*
X101116817Y-119405486D01*
X101164436Y-119357867D01*
X101212055Y-119262629D01*
X101212055Y-119072153D01*
X101164436Y-118976915D01*
X101116817Y-118929296D01*
X101021579Y-118881677D01*
X100783484Y-118881677D01*
X100688246Y-118929296D01*
X100640627Y-118976915D01*
X100593008Y-119072153D01*
X100593008Y-119262629D01*
X100640627Y-119357867D01*
X100688246Y-119405486D01*
X100783484Y-119453105D01*
X92357142Y-124452380D02*
X92023809Y-123976190D01*
X91785714Y-124452380D02*
X91785714Y-123452380D01*
X92166666Y-123452380D01*
X92261904Y-123500000D01*
X92309523Y-123547619D01*
X92357142Y-123642857D01*
X92357142Y-123785714D01*
X92309523Y-123880952D01*
X92261904Y-123928571D01*
X92166666Y-123976190D01*
X91785714Y-123976190D01*
X93309523Y-124452380D02*
X92738095Y-124452380D01*
X93023809Y-124452380D02*
X93023809Y-123452380D01*
X92928571Y-123595238D01*
X92833333Y-123690476D01*
X92738095Y-123738095D01*
X93642857Y-123452380D02*
X94309523Y-123452380D01*
X93880952Y-124452380D01*
X123404761Y-127583333D02*
X123452380Y-127440476D01*
X123452380Y-127202380D01*
X123404761Y-127107142D01*
X123357142Y-127059523D01*
X123261904Y-127011904D01*
X123166666Y-127011904D01*
X123071428Y-127059523D01*
X123023809Y-127107142D01*
X122976190Y-127202380D01*
X122928571Y-127392857D01*
X122880952Y-127488095D01*
X122833333Y-127535714D01*
X122738095Y-127583333D01*
X122642857Y-127583333D01*
X122547619Y-127535714D01*
X122500000Y-127488095D01*
X122452380Y-127392857D01*
X122452380Y-127154761D01*
X122500000Y-127011904D01*
X122452380Y-126678571D02*
X123452380Y-126440476D01*
X122738095Y-126250000D01*
X123452380Y-126059523D01*
X122452380Y-125821428D01*
X123452380Y-124916666D02*
X123452380Y-125488095D01*
X123452380Y-125202380D02*
X122452380Y-125202380D01*
X122595238Y-125297619D01*
X122690476Y-125392857D01*
X122738095Y-125488095D01*
X148654761Y-127583333D02*
X148702380Y-127440476D01*
X148702380Y-127202380D01*
X148654761Y-127107142D01*
X148607142Y-127059523D01*
X148511904Y-127011904D01*
X148416666Y-127011904D01*
X148321428Y-127059523D01*
X148273809Y-127107142D01*
X148226190Y-127202380D01*
X148178571Y-127392857D01*
X148130952Y-127488095D01*
X148083333Y-127535714D01*
X147988095Y-127583333D01*
X147892857Y-127583333D01*
X147797619Y-127535714D01*
X147750000Y-127488095D01*
X147702380Y-127392857D01*
X147702380Y-127154761D01*
X147750000Y-127011904D01*
X147702380Y-126678571D02*
X148702380Y-126440476D01*
X147988095Y-126250000D01*
X148702380Y-126059523D01*
X147702380Y-125821428D01*
X147797619Y-125488095D02*
X147750000Y-125440476D01*
X147702380Y-125345238D01*
X147702380Y-125107142D01*
X147750000Y-125011904D01*
X147797619Y-124964285D01*
X147892857Y-124916666D01*
X147988095Y-124916666D01*
X148130952Y-124964285D01*
X148702380Y-125535714D01*
X148702380Y-124916666D01*
X88666666Y-121904761D02*
X88809523Y-121952380D01*
X89047619Y-121952380D01*
X89142857Y-121904761D01*
X89190476Y-121857142D01*
X89238095Y-121761904D01*
X89238095Y-121666666D01*
X89190476Y-121571428D01*
X89142857Y-121523809D01*
X89047619Y-121476190D01*
X88857142Y-121428571D01*
X88761904Y-121380952D01*
X88714285Y-121333333D01*
X88666666Y-121238095D01*
X88666666Y-121142857D01*
X88714285Y-121047619D01*
X88761904Y-121000000D01*
X88857142Y-120952380D01*
X89095238Y-120952380D01*
X89238095Y-121000000D01*
X89571428Y-120952380D02*
X89809523Y-121952380D01*
X90000000Y-121238095D01*
X90190476Y-121952380D01*
X90428571Y-120952380D01*
X90714285Y-120952380D02*
X91333333Y-120952380D01*
X91000000Y-121333333D01*
X91142857Y-121333333D01*
X91238095Y-121380952D01*
X91285714Y-121428571D01*
X91333333Y-121523809D01*
X91333333Y-121761904D01*
X91285714Y-121857142D01*
X91238095Y-121904761D01*
X91142857Y-121952380D01*
X90857142Y-121952380D01*
X90761904Y-121904761D01*
X90714285Y-121857142D01*
X96904761Y-127583333D02*
X96952380Y-127440476D01*
X96952380Y-127202380D01*
X96904761Y-127107142D01*
X96857142Y-127059523D01*
X96761904Y-127011904D01*
X96666666Y-127011904D01*
X96571428Y-127059523D01*
X96523809Y-127107142D01*
X96476190Y-127202380D01*
X96428571Y-127392857D01*
X96380952Y-127488095D01*
X96333333Y-127535714D01*
X96238095Y-127583333D01*
X96142857Y-127583333D01*
X96047619Y-127535714D01*
X96000000Y-127488095D01*
X95952380Y-127392857D01*
X95952380Y-127154761D01*
X96000000Y-127011904D01*
X95952380Y-126678571D02*
X96952380Y-126440476D01*
X96238095Y-126250000D01*
X96952380Y-126059523D01*
X95952380Y-125821428D01*
X96285714Y-125011904D02*
X96952380Y-125011904D01*
X95904761Y-125250000D02*
X96619047Y-125488095D01*
X96619047Y-124869047D01*
X110202380Y-120761904D02*
X111011904Y-120761904D01*
X111107142Y-120714285D01*
X111154761Y-120666666D01*
X111202380Y-120571428D01*
X111202380Y-120380952D01*
X111154761Y-120285714D01*
X111107142Y-120238095D01*
X111011904Y-120190476D01*
X110202380Y-120190476D01*
X110297619Y-119761904D02*
X110250000Y-119714285D01*
X110202380Y-119619047D01*
X110202380Y-119380952D01*
X110250000Y-119285714D01*
X110297619Y-119238095D01*
X110392857Y-119190476D01*
X110488095Y-119190476D01*
X110630952Y-119238095D01*
X111202380Y-119809523D01*
X111202380Y-119190476D01*
X122738095Y-105952380D02*
X122738095Y-106761904D01*
X122785714Y-106857142D01*
X122833333Y-106904761D01*
X122928571Y-106952380D01*
X123119047Y-106952380D01*
X123214285Y-106904761D01*
X123261904Y-106857142D01*
X123309523Y-106761904D01*
X123309523Y-105952380D01*
X123690476Y-105952380D02*
X124309523Y-105952380D01*
X123976190Y-106333333D01*
X124119047Y-106333333D01*
X124214285Y-106380952D01*
X124261904Y-106428571D01*
X124309523Y-106523809D01*
X124309523Y-106761904D01*
X124261904Y-106857142D01*
X124214285Y-106904761D01*
X124119047Y-106952380D01*
X123833333Y-106952380D01*
X123738095Y-106904761D01*
X123690476Y-106857142D01*
X145238095Y-96452380D02*
X145238095Y-97261904D01*
X145285714Y-97357142D01*
X145333333Y-97404761D01*
X145428571Y-97452380D01*
X145619047Y-97452380D01*
X145714285Y-97404761D01*
X145761904Y-97357142D01*
X145809523Y-97261904D01*
X145809523Y-96452380D01*
X146761904Y-96452380D02*
X146285714Y-96452380D01*
X146238095Y-96928571D01*
X146285714Y-96880952D01*
X146380952Y-96833333D01*
X146619047Y-96833333D01*
X146714285Y-96880952D01*
X146761904Y-96928571D01*
X146809523Y-97023809D01*
X146809523Y-97261904D01*
X146761904Y-97357142D01*
X146714285Y-97404761D01*
X146619047Y-97452380D01*
X146380952Y-97452380D01*
X146285714Y-97404761D01*
X146238095Y-97357142D01*
X140607142Y-89916666D02*
X140654761Y-89964285D01*
X140702380Y-90107142D01*
X140702380Y-90202380D01*
X140654761Y-90345238D01*
X140559523Y-90440476D01*
X140464285Y-90488095D01*
X140273809Y-90535714D01*
X140130952Y-90535714D01*
X139940476Y-90488095D01*
X139845238Y-90440476D01*
X139750000Y-90345238D01*
X139702380Y-90202380D01*
X139702380Y-90107142D01*
X139750000Y-89964285D01*
X139797619Y-89916666D01*
X139702380Y-89583333D02*
X139702380Y-88916666D01*
X140702380Y-89345238D01*
M02*
