M48
;DRILL file {KiCad (6.0.0-rc1-dev-853-g5bbc2d74a)} date 2018 November 17, Saturday 03:52:42
;FORMAT={-:-/ absolute / inch / decimal}
FMAT,2
INCH
T1C0.0157
T2C0.0256
T3C0.0394
T4C0.0591
T5C0.0689
%
G90
G05
M72
T1
X3.4744Y-3.4843
X3.4941Y-3.7598
X3.5335Y-3.563
X3.565Y-3.3189
X3.5728Y-4.7835
X3.5827Y-3.5728
X3.5925Y-4.9311
X3.6417Y-4.8327
X3.6516Y-3.0906
X3.6516Y-3.7598
X3.6516Y-4.7047
X3.6516Y-4.7638
X3.6909Y-3.5827
X3.7303Y-3.3169
X3.7598Y-3.7008
X3.7648Y-4.7579
X3.7697Y-3.5925
X3.7795Y-2.9626
X3.7894Y-3.4744
X3.7992Y-4.9409
X3.8081Y-4.3002
X3.8091Y-4.2323
X3.8091Y-4.3701
X3.8189Y-3.1594
X3.8189Y-3.2579
X3.8189Y-3.3563
X3.8386Y-4.5177
X3.85Y-4.4622
X3.8583Y-4.0059
X3.8583Y-4.124
X3.8583Y-4.872
X3.8878Y-4.2126
X3.9Y-3.8878
X3.9272Y-3.4449
X3.9281Y-3.7136
X3.9439Y-3.6575
X3.95Y-3.8878
X3.9764Y-3.7205
X3.9862Y-4.685
X3.9961Y-4.9803
X4.0256Y-4.4882
X4.0256Y-4.9213
X4.076Y-4.7453
X4.0915Y-3.7096
X4.0984Y-4.7923
X4.1142Y-3.9961
X4.124Y-4.7441
X4.1535Y-3.3957
X4.1831Y-4.6752
X4.2008Y-4.2028
X4.2028Y-3.9567
X4.2028Y-4.3238
X4.2096Y-3.6171
X4.2103Y-4.1118
X4.2224Y-4.4291
X4.2224Y-4.5177
X4.2381Y-4.084
X4.25Y-3.8878
X4.2614Y-3.6482
X4.2707Y-4.1624
X4.2707Y-4.3091
X4.2815Y-3.8091
X4.3012Y-3.7008
X4.3012Y-4.3996
X4.3307Y-4.5177
X4.3406Y-3.3957
X4.3406Y-4.2372
X4.3431Y-3.979
X4.3581Y-4.053
X4.378Y-4.124
X4.3799Y-4.3406
X4.3853Y-4.2755
X4.3898Y-3.7106
X4.4587Y-4.4671
X4.4961Y-3.8091
X4.498Y-4.5177
X4.5079Y-3.3957
X4.5217Y-4.6533
X4.5276Y-3.7106
X4.5374Y-3.6417
X4.5374Y-4.6063
X4.5472Y-3.5827
X4.5669Y-4.3898
X4.5866Y-4.252
X4.5965Y-5.0
X4.6063Y-4.5965
X4.6161Y-4.9114
X4.624Y-4.2244
X4.626Y-4.3898
X4.626Y-4.5276
X4.813Y-3.9567
X4.8228Y-2.9626
X4.8425Y-4.9508
X4.872Y-3.5827
X4.9016Y-3.9665
X4.9409Y-3.2776
X4.9409Y-3.4843
X4.9803Y-4.1732
X5.0Y-4.9705
X5.0738Y-4.6624
X5.0935Y-4.3917
X5.1378Y-3.4744
X5.2264Y-4.1634
X5.253Y-4.3917
X5.2953Y-3.3858
X5.3248Y-4.4016
X5.3642Y-4.3996
X5.3839Y-4.1634
X5.5315Y-4.1634
X5.5906Y-4.2421
X5.6004Y-4.3012
X5.6004Y-4.9606
X5.6201Y-4.2126
X5.6486Y-4.6959
X5.6791Y-4.7539
X5.7382Y-3.4252
X5.7528Y-4.424
X5.7776Y-2.9528
X5.7874Y-4.0551
X5.7874Y-4.4488
X5.7953Y-4.6959
X5.7972Y-4.7736
X5.8071Y-3.7106
X5.8169Y-3.7992
X5.8268Y-4.498
X5.8268Y-4.872
X5.8366Y-3.9272
X5.8366Y-4.9409
X5.8465Y-4.0551
X5.876Y-4.3898
X5.9055Y-4.5276
X5.9449Y-3.9272
X5.9547Y-4.5374
X5.9646Y-4.685
X5.9843Y-4.3996
X5.9941Y-3.7697
X6.0236Y-4.872
X6.0531Y-4.2126
X3.9717Y-4.1721
X3.9717Y-4.2121
X3.9717Y-4.2521
X3.9717Y-4.2921
X3.9717Y-4.3321
X4.0117Y-4.1721
X4.0117Y-4.2121
X4.0117Y-4.2521
X4.0117Y-4.2921
X4.0117Y-4.3321
X4.0517Y-4.1721
X4.0517Y-4.2121
X4.0517Y-4.2521
X4.0517Y-4.2521
X4.0517Y-4.2921
X4.0517Y-4.3321
X4.0917Y-4.1721
X4.0917Y-4.2121
X4.0917Y-4.2521
X4.0917Y-4.2921
X4.0917Y-4.3321
X4.1317Y-4.1721
X4.1317Y-4.2121
X4.1317Y-4.2521
X4.1317Y-4.2921
X4.1317Y-4.3321
T2
X5.9941Y-3.5425
X5.9941Y-3.5925
X5.9941Y-3.6425
X5.9941Y-3.6925
T3
X4.1417Y-3.6421
X4.1417Y-4.8421
X4.2417Y-4.8421
X4.3417Y-3.6421
X4.3417Y-4.8421
X4.4417Y-4.8421
X4.5417Y-4.8421
X4.6417Y-3.6421
X4.6417Y-4.8421
X4.7417Y-4.8421
X4.8417Y-4.8421
X4.9417Y-3.6421
X4.9417Y-4.8421
X5.0417Y-4.8421
X5.1417Y-3.6421
X5.1417Y-4.8421
X5.2417Y-4.8421
X5.3417Y-4.8421
X5.4417Y-3.6421
X5.4417Y-4.8421
X5.5417Y-4.8421
X5.6417Y-3.6421
X5.6417Y-4.8421
T4
X6.0039Y-2.9528
X3.4941Y-2.9528
X6.0039Y-4.9606
X3.5236Y-4.9606
T5
X3.9665Y-3.2382
X4.2665Y-3.2382
X5.5866Y-3.2382
X5.8866Y-3.2382
T0
M30
