%TF.GenerationSoftware,KiCad,Pcbnew,(5.1.0-0)*%
%TF.CreationDate,2019-05-08T03:50:09+02:00*%
%TF.ProjectId,VFD_Watch,5646445f-5761-4746-9368-2e6b69636164,rev?*%
%TF.SameCoordinates,Original*%
%TF.FileFunction,Drawing*%
%FSLAX46Y46*%
G04 Gerber Fmt 4.6, Leading zero omitted, Abs format (unit mm)*
G04 Created by KiCad (PCBNEW (5.1.0-0)) date 2019-05-08 03:50:09*
%MOMM*%
%LPD*%
G04 APERTURE LIST*
%ADD10C,0.050000*%
%ADD11C,0.150000*%
%ADD12C,0.100000*%
%ADD13C,0.040000*%
G04 APERTURE END LIST*
D10*
X93750000Y-117000000D02*
G75*
G02X92250000Y-118500000I-1500000J0D01*
G01*
X92250000Y-96250000D02*
G75*
G02X93750000Y-97750000I0J-1500000D01*
G01*
X88250000Y-96250000D02*
G75*
G02X86750000Y-94750000I0J1500000D01*
G01*
X87500000Y-120000000D02*
G75*
G02X89000000Y-118500000I1500000J0D01*
G01*
X89000000Y-128000000D02*
G75*
G02X87500000Y-126500000I0J1500000D01*
G01*
X154500000Y-126500000D02*
G75*
G02X153000000Y-128000000I-1500000J0D01*
G01*
X153000000Y-73000000D02*
G75*
G02X154500000Y-74500000I0J-1500000D01*
G01*
X86750000Y-74500000D02*
G75*
G02X88250000Y-73000000I1500000J0D01*
G01*
X87500000Y-120000000D02*
X87500000Y-126500000D01*
X92250000Y-118500000D02*
X89000000Y-118500000D01*
X93750000Y-97750000D02*
X93750000Y-117000000D01*
X88250000Y-96250000D02*
X92250000Y-96250000D01*
X86750000Y-76750000D02*
X86750000Y-94750000D01*
X86750000Y-74500000D02*
X86750000Y-76750000D01*
X153000000Y-73000000D02*
X88250000Y-73000000D01*
X154500000Y-74500000D02*
X154500000Y-126500000D01*
X89000000Y-128000000D02*
X153000000Y-128000000D01*
D11*
X140500000Y-76000000D02*
X130000000Y-76000000D01*
X130000000Y-74500000D02*
X140500000Y-74500000D01*
X140500000Y-74500000D02*
G75*
G02X140500000Y-76000000I0J-750000D01*
G01*
X130000000Y-76000000D02*
G75*
G02X130000000Y-74500000I0J750000D01*
G01*
X114750000Y-76000000D02*
X104250000Y-76000000D01*
X104250000Y-74500000D02*
X114750000Y-74500000D01*
X114750000Y-74500000D02*
G75*
G02X114750000Y-76000000I0J-750000D01*
G01*
X104250000Y-76000000D02*
G75*
G02X104250000Y-74500000I0J750000D01*
G01*
X140250000Y-126750000D02*
X129750000Y-126750000D01*
X129750000Y-125250000D02*
X140250000Y-125250000D01*
X140250000Y-125250000D02*
G75*
G02X140250000Y-126750000I0J-750000D01*
G01*
X129750000Y-126750000D02*
G75*
G02X129750000Y-125250000I0J750000D01*
G01*
X114750000Y-126750000D02*
X104250000Y-126750000D01*
X104250000Y-125250000D02*
X114750000Y-125250000D01*
X114750000Y-125250000D02*
G75*
G02X114750000Y-126750000I0J-750000D01*
G01*
X104250000Y-126750000D02*
G75*
G02X104250000Y-125250000I0J750000D01*
G01*
D12*
X130797619Y-78202380D02*
X130869047Y-78226190D01*
X130988095Y-78226190D01*
X131035714Y-78202380D01*
X131059523Y-78178571D01*
X131083333Y-78130952D01*
X131083333Y-78083333D01*
X131059523Y-78035714D01*
X131035714Y-78011904D01*
X130988095Y-77988095D01*
X130892857Y-77964285D01*
X130845238Y-77940476D01*
X130821428Y-77916666D01*
X130797619Y-77869047D01*
X130797619Y-77821428D01*
X130821428Y-77773809D01*
X130845238Y-77750000D01*
X130892857Y-77726190D01*
X131011904Y-77726190D01*
X131083333Y-77750000D01*
X131369047Y-78226190D02*
X131321428Y-78202380D01*
X131297619Y-78154761D01*
X131297619Y-77726190D01*
X131630952Y-78226190D02*
X131583333Y-78202380D01*
X131559523Y-78178571D01*
X131535714Y-78130952D01*
X131535714Y-77988095D01*
X131559523Y-77940476D01*
X131583333Y-77916666D01*
X131630952Y-77892857D01*
X131702380Y-77892857D01*
X131750000Y-77916666D01*
X131773809Y-77940476D01*
X131797619Y-77988095D01*
X131797619Y-78130952D01*
X131773809Y-78178571D01*
X131750000Y-78202380D01*
X131702380Y-78226190D01*
X131630952Y-78226190D01*
X131940476Y-77892857D02*
X132130952Y-77892857D01*
X132011904Y-77726190D02*
X132011904Y-78154761D01*
X132035714Y-78202380D01*
X132083333Y-78226190D01*
X132130952Y-78226190D01*
X132273809Y-78202380D02*
X132321428Y-78226190D01*
X132416666Y-78226190D01*
X132464285Y-78202380D01*
X132488095Y-78154761D01*
X132488095Y-78130952D01*
X132464285Y-78083333D01*
X132416666Y-78059523D01*
X132345238Y-78059523D01*
X132297619Y-78035714D01*
X132273809Y-77988095D01*
X132273809Y-77964285D01*
X132297619Y-77916666D01*
X132345238Y-77892857D01*
X132416666Y-77892857D01*
X132464285Y-77916666D01*
X133083333Y-78226190D02*
X133083333Y-77892857D01*
X133083333Y-77988095D02*
X133107142Y-77940476D01*
X133130952Y-77916666D01*
X133178571Y-77892857D01*
X133226190Y-77892857D01*
X133464285Y-78226190D02*
X133416666Y-78202380D01*
X133392857Y-78178571D01*
X133369047Y-78130952D01*
X133369047Y-77988095D01*
X133392857Y-77940476D01*
X133416666Y-77916666D01*
X133464285Y-77892857D01*
X133535714Y-77892857D01*
X133583333Y-77916666D01*
X133607142Y-77940476D01*
X133630952Y-77988095D01*
X133630952Y-78130952D01*
X133607142Y-78178571D01*
X133583333Y-78202380D01*
X133535714Y-78226190D01*
X133464285Y-78226190D01*
X134059523Y-77892857D02*
X134059523Y-78226190D01*
X133845238Y-77892857D02*
X133845238Y-78154761D01*
X133869047Y-78202380D01*
X133916666Y-78226190D01*
X133988095Y-78226190D01*
X134035714Y-78202380D01*
X134059523Y-78178571D01*
X134226190Y-77892857D02*
X134416666Y-77892857D01*
X134297619Y-77726190D02*
X134297619Y-78154761D01*
X134321428Y-78202380D01*
X134369047Y-78226190D01*
X134416666Y-78226190D01*
X134773809Y-78202380D02*
X134726190Y-78226190D01*
X134630952Y-78226190D01*
X134583333Y-78202380D01*
X134559523Y-78154761D01*
X134559523Y-77964285D01*
X134583333Y-77916666D01*
X134630952Y-77892857D01*
X134726190Y-77892857D01*
X134773809Y-77916666D01*
X134797619Y-77964285D01*
X134797619Y-78011904D01*
X134559523Y-78059523D01*
X135226190Y-78226190D02*
X135226190Y-77726190D01*
X135226190Y-78202380D02*
X135178571Y-78226190D01*
X135083333Y-78226190D01*
X135035714Y-78202380D01*
X135011904Y-78178571D01*
X134988095Y-78130952D01*
X134988095Y-77988095D01*
X135011904Y-77940476D01*
X135035714Y-77916666D01*
X135083333Y-77892857D01*
X135178571Y-77892857D01*
X135226190Y-77916666D01*
X136059523Y-78226190D02*
X136059523Y-77964285D01*
X136035714Y-77916666D01*
X135988095Y-77892857D01*
X135892857Y-77892857D01*
X135845238Y-77916666D01*
X136059523Y-78202380D02*
X136011904Y-78226190D01*
X135892857Y-78226190D01*
X135845238Y-78202380D01*
X135821428Y-78154761D01*
X135821428Y-78107142D01*
X135845238Y-78059523D01*
X135892857Y-78035714D01*
X136011904Y-78035714D01*
X136059523Y-78011904D01*
X136297619Y-77892857D02*
X136297619Y-78226190D01*
X136297619Y-77940476D02*
X136321428Y-77916666D01*
X136369047Y-77892857D01*
X136440476Y-77892857D01*
X136488095Y-77916666D01*
X136511904Y-77964285D01*
X136511904Y-78226190D01*
X136964285Y-78226190D02*
X136964285Y-77726190D01*
X136964285Y-78202380D02*
X136916666Y-78226190D01*
X136821428Y-78226190D01*
X136773809Y-78202380D01*
X136750000Y-78178571D01*
X136726190Y-78130952D01*
X136726190Y-77988095D01*
X136750000Y-77940476D01*
X136773809Y-77916666D01*
X136821428Y-77892857D01*
X136916666Y-77892857D01*
X136964285Y-77916666D01*
X137583333Y-77892857D02*
X137583333Y-78392857D01*
X137583333Y-77916666D02*
X137630952Y-77892857D01*
X137726190Y-77892857D01*
X137773809Y-77916666D01*
X137797619Y-77940476D01*
X137821428Y-77988095D01*
X137821428Y-78130952D01*
X137797619Y-78178571D01*
X137773809Y-78202380D01*
X137726190Y-78226190D01*
X137630952Y-78226190D01*
X137583333Y-78202380D01*
X138107142Y-78226190D02*
X138059523Y-78202380D01*
X138035714Y-78154761D01*
X138035714Y-77726190D01*
X138511904Y-78226190D02*
X138511904Y-77964285D01*
X138488095Y-77916666D01*
X138440476Y-77892857D01*
X138345238Y-77892857D01*
X138297619Y-77916666D01*
X138511904Y-78202380D02*
X138464285Y-78226190D01*
X138345238Y-78226190D01*
X138297619Y-78202380D01*
X138273809Y-78154761D01*
X138273809Y-78107142D01*
X138297619Y-78059523D01*
X138345238Y-78035714D01*
X138464285Y-78035714D01*
X138511904Y-78011904D01*
X138678571Y-77892857D02*
X138869047Y-77892857D01*
X138750000Y-77726190D02*
X138750000Y-78154761D01*
X138773809Y-78202380D01*
X138821428Y-78226190D01*
X138869047Y-78226190D01*
X139226190Y-78202380D02*
X139178571Y-78226190D01*
X139083333Y-78226190D01*
X139035714Y-78202380D01*
X139011904Y-78154761D01*
X139011904Y-77964285D01*
X139035714Y-77916666D01*
X139083333Y-77892857D01*
X139178571Y-77892857D01*
X139226190Y-77916666D01*
X139250000Y-77964285D01*
X139250000Y-78011904D01*
X139011904Y-78059523D01*
X139678571Y-78226190D02*
X139678571Y-77726190D01*
X139678571Y-78202380D02*
X139630952Y-78226190D01*
X139535714Y-78226190D01*
X139488095Y-78202380D01*
X139464285Y-78178571D01*
X139440476Y-78130952D01*
X139440476Y-77988095D01*
X139464285Y-77940476D01*
X139488095Y-77916666D01*
X139535714Y-77892857D01*
X139630952Y-77892857D01*
X139678571Y-77916666D01*
X105047619Y-78202380D02*
X105119047Y-78226190D01*
X105238095Y-78226190D01*
X105285714Y-78202380D01*
X105309523Y-78178571D01*
X105333333Y-78130952D01*
X105333333Y-78083333D01*
X105309523Y-78035714D01*
X105285714Y-78011904D01*
X105238095Y-77988095D01*
X105142857Y-77964285D01*
X105095238Y-77940476D01*
X105071428Y-77916666D01*
X105047619Y-77869047D01*
X105047619Y-77821428D01*
X105071428Y-77773809D01*
X105095238Y-77750000D01*
X105142857Y-77726190D01*
X105261904Y-77726190D01*
X105333333Y-77750000D01*
X105619047Y-78226190D02*
X105571428Y-78202380D01*
X105547619Y-78154761D01*
X105547619Y-77726190D01*
X105880952Y-78226190D02*
X105833333Y-78202380D01*
X105809523Y-78178571D01*
X105785714Y-78130952D01*
X105785714Y-77988095D01*
X105809523Y-77940476D01*
X105833333Y-77916666D01*
X105880952Y-77892857D01*
X105952380Y-77892857D01*
X106000000Y-77916666D01*
X106023809Y-77940476D01*
X106047619Y-77988095D01*
X106047619Y-78130952D01*
X106023809Y-78178571D01*
X106000000Y-78202380D01*
X105952380Y-78226190D01*
X105880952Y-78226190D01*
X106190476Y-77892857D02*
X106380952Y-77892857D01*
X106261904Y-77726190D02*
X106261904Y-78154761D01*
X106285714Y-78202380D01*
X106333333Y-78226190D01*
X106380952Y-78226190D01*
X106523809Y-78202380D02*
X106571428Y-78226190D01*
X106666666Y-78226190D01*
X106714285Y-78202380D01*
X106738095Y-78154761D01*
X106738095Y-78130952D01*
X106714285Y-78083333D01*
X106666666Y-78059523D01*
X106595238Y-78059523D01*
X106547619Y-78035714D01*
X106523809Y-77988095D01*
X106523809Y-77964285D01*
X106547619Y-77916666D01*
X106595238Y-77892857D01*
X106666666Y-77892857D01*
X106714285Y-77916666D01*
X107333333Y-78226190D02*
X107333333Y-77892857D01*
X107333333Y-77988095D02*
X107357142Y-77940476D01*
X107380952Y-77916666D01*
X107428571Y-77892857D01*
X107476190Y-77892857D01*
X107714285Y-78226190D02*
X107666666Y-78202380D01*
X107642857Y-78178571D01*
X107619047Y-78130952D01*
X107619047Y-77988095D01*
X107642857Y-77940476D01*
X107666666Y-77916666D01*
X107714285Y-77892857D01*
X107785714Y-77892857D01*
X107833333Y-77916666D01*
X107857142Y-77940476D01*
X107880952Y-77988095D01*
X107880952Y-78130952D01*
X107857142Y-78178571D01*
X107833333Y-78202380D01*
X107785714Y-78226190D01*
X107714285Y-78226190D01*
X108309523Y-77892857D02*
X108309523Y-78226190D01*
X108095238Y-77892857D02*
X108095238Y-78154761D01*
X108119047Y-78202380D01*
X108166666Y-78226190D01*
X108238095Y-78226190D01*
X108285714Y-78202380D01*
X108309523Y-78178571D01*
X108476190Y-77892857D02*
X108666666Y-77892857D01*
X108547619Y-77726190D02*
X108547619Y-78154761D01*
X108571428Y-78202380D01*
X108619047Y-78226190D01*
X108666666Y-78226190D01*
X109023809Y-78202380D02*
X108976190Y-78226190D01*
X108880952Y-78226190D01*
X108833333Y-78202380D01*
X108809523Y-78154761D01*
X108809523Y-77964285D01*
X108833333Y-77916666D01*
X108880952Y-77892857D01*
X108976190Y-77892857D01*
X109023809Y-77916666D01*
X109047619Y-77964285D01*
X109047619Y-78011904D01*
X108809523Y-78059523D01*
X109476190Y-78226190D02*
X109476190Y-77726190D01*
X109476190Y-78202380D02*
X109428571Y-78226190D01*
X109333333Y-78226190D01*
X109285714Y-78202380D01*
X109261904Y-78178571D01*
X109238095Y-78130952D01*
X109238095Y-77988095D01*
X109261904Y-77940476D01*
X109285714Y-77916666D01*
X109333333Y-77892857D01*
X109428571Y-77892857D01*
X109476190Y-77916666D01*
X110309523Y-78226190D02*
X110309523Y-77964285D01*
X110285714Y-77916666D01*
X110238095Y-77892857D01*
X110142857Y-77892857D01*
X110095238Y-77916666D01*
X110309523Y-78202380D02*
X110261904Y-78226190D01*
X110142857Y-78226190D01*
X110095238Y-78202380D01*
X110071428Y-78154761D01*
X110071428Y-78107142D01*
X110095238Y-78059523D01*
X110142857Y-78035714D01*
X110261904Y-78035714D01*
X110309523Y-78011904D01*
X110547619Y-77892857D02*
X110547619Y-78226190D01*
X110547619Y-77940476D02*
X110571428Y-77916666D01*
X110619047Y-77892857D01*
X110690476Y-77892857D01*
X110738095Y-77916666D01*
X110761904Y-77964285D01*
X110761904Y-78226190D01*
X111214285Y-78226190D02*
X111214285Y-77726190D01*
X111214285Y-78202380D02*
X111166666Y-78226190D01*
X111071428Y-78226190D01*
X111023809Y-78202380D01*
X111000000Y-78178571D01*
X110976190Y-78130952D01*
X110976190Y-77988095D01*
X111000000Y-77940476D01*
X111023809Y-77916666D01*
X111071428Y-77892857D01*
X111166666Y-77892857D01*
X111214285Y-77916666D01*
X111833333Y-77892857D02*
X111833333Y-78392857D01*
X111833333Y-77916666D02*
X111880952Y-77892857D01*
X111976190Y-77892857D01*
X112023809Y-77916666D01*
X112047619Y-77940476D01*
X112071428Y-77988095D01*
X112071428Y-78130952D01*
X112047619Y-78178571D01*
X112023809Y-78202380D01*
X111976190Y-78226190D01*
X111880952Y-78226190D01*
X111833333Y-78202380D01*
X112357142Y-78226190D02*
X112309523Y-78202380D01*
X112285714Y-78154761D01*
X112285714Y-77726190D01*
X112761904Y-78226190D02*
X112761904Y-77964285D01*
X112738095Y-77916666D01*
X112690476Y-77892857D01*
X112595238Y-77892857D01*
X112547619Y-77916666D01*
X112761904Y-78202380D02*
X112714285Y-78226190D01*
X112595238Y-78226190D01*
X112547619Y-78202380D01*
X112523809Y-78154761D01*
X112523809Y-78107142D01*
X112547619Y-78059523D01*
X112595238Y-78035714D01*
X112714285Y-78035714D01*
X112761904Y-78011904D01*
X112928571Y-77892857D02*
X113119047Y-77892857D01*
X113000000Y-77726190D02*
X113000000Y-78154761D01*
X113023809Y-78202380D01*
X113071428Y-78226190D01*
X113119047Y-78226190D01*
X113476190Y-78202380D02*
X113428571Y-78226190D01*
X113333333Y-78226190D01*
X113285714Y-78202380D01*
X113261904Y-78154761D01*
X113261904Y-77964285D01*
X113285714Y-77916666D01*
X113333333Y-77892857D01*
X113428571Y-77892857D01*
X113476190Y-77916666D01*
X113500000Y-77964285D01*
X113500000Y-78011904D01*
X113261904Y-78059523D01*
X113928571Y-78226190D02*
X113928571Y-77726190D01*
X113928571Y-78202380D02*
X113880952Y-78226190D01*
X113785714Y-78226190D01*
X113738095Y-78202380D01*
X113714285Y-78178571D01*
X113690476Y-78130952D01*
X113690476Y-77988095D01*
X113714285Y-77940476D01*
X113738095Y-77916666D01*
X113785714Y-77892857D01*
X113880952Y-77892857D01*
X113928571Y-77916666D01*
X130547619Y-128952380D02*
X130619047Y-128976190D01*
X130738095Y-128976190D01*
X130785714Y-128952380D01*
X130809523Y-128928571D01*
X130833333Y-128880952D01*
X130833333Y-128833333D01*
X130809523Y-128785714D01*
X130785714Y-128761904D01*
X130738095Y-128738095D01*
X130642857Y-128714285D01*
X130595238Y-128690476D01*
X130571428Y-128666666D01*
X130547619Y-128619047D01*
X130547619Y-128571428D01*
X130571428Y-128523809D01*
X130595238Y-128500000D01*
X130642857Y-128476190D01*
X130761904Y-128476190D01*
X130833333Y-128500000D01*
X131119047Y-128976190D02*
X131071428Y-128952380D01*
X131047619Y-128904761D01*
X131047619Y-128476190D01*
X131380952Y-128976190D02*
X131333333Y-128952380D01*
X131309523Y-128928571D01*
X131285714Y-128880952D01*
X131285714Y-128738095D01*
X131309523Y-128690476D01*
X131333333Y-128666666D01*
X131380952Y-128642857D01*
X131452380Y-128642857D01*
X131500000Y-128666666D01*
X131523809Y-128690476D01*
X131547619Y-128738095D01*
X131547619Y-128880952D01*
X131523809Y-128928571D01*
X131500000Y-128952380D01*
X131452380Y-128976190D01*
X131380952Y-128976190D01*
X131690476Y-128642857D02*
X131880952Y-128642857D01*
X131761904Y-128476190D02*
X131761904Y-128904761D01*
X131785714Y-128952380D01*
X131833333Y-128976190D01*
X131880952Y-128976190D01*
X132023809Y-128952380D02*
X132071428Y-128976190D01*
X132166666Y-128976190D01*
X132214285Y-128952380D01*
X132238095Y-128904761D01*
X132238095Y-128880952D01*
X132214285Y-128833333D01*
X132166666Y-128809523D01*
X132095238Y-128809523D01*
X132047619Y-128785714D01*
X132023809Y-128738095D01*
X132023809Y-128714285D01*
X132047619Y-128666666D01*
X132095238Y-128642857D01*
X132166666Y-128642857D01*
X132214285Y-128666666D01*
X132833333Y-128976190D02*
X132833333Y-128642857D01*
X132833333Y-128738095D02*
X132857142Y-128690476D01*
X132880952Y-128666666D01*
X132928571Y-128642857D01*
X132976190Y-128642857D01*
X133214285Y-128976190D02*
X133166666Y-128952380D01*
X133142857Y-128928571D01*
X133119047Y-128880952D01*
X133119047Y-128738095D01*
X133142857Y-128690476D01*
X133166666Y-128666666D01*
X133214285Y-128642857D01*
X133285714Y-128642857D01*
X133333333Y-128666666D01*
X133357142Y-128690476D01*
X133380952Y-128738095D01*
X133380952Y-128880952D01*
X133357142Y-128928571D01*
X133333333Y-128952380D01*
X133285714Y-128976190D01*
X133214285Y-128976190D01*
X133809523Y-128642857D02*
X133809523Y-128976190D01*
X133595238Y-128642857D02*
X133595238Y-128904761D01*
X133619047Y-128952380D01*
X133666666Y-128976190D01*
X133738095Y-128976190D01*
X133785714Y-128952380D01*
X133809523Y-128928571D01*
X133976190Y-128642857D02*
X134166666Y-128642857D01*
X134047619Y-128476190D02*
X134047619Y-128904761D01*
X134071428Y-128952380D01*
X134119047Y-128976190D01*
X134166666Y-128976190D01*
X134523809Y-128952380D02*
X134476190Y-128976190D01*
X134380952Y-128976190D01*
X134333333Y-128952380D01*
X134309523Y-128904761D01*
X134309523Y-128714285D01*
X134333333Y-128666666D01*
X134380952Y-128642857D01*
X134476190Y-128642857D01*
X134523809Y-128666666D01*
X134547619Y-128714285D01*
X134547619Y-128761904D01*
X134309523Y-128809523D01*
X134976190Y-128976190D02*
X134976190Y-128476190D01*
X134976190Y-128952380D02*
X134928571Y-128976190D01*
X134833333Y-128976190D01*
X134785714Y-128952380D01*
X134761904Y-128928571D01*
X134738095Y-128880952D01*
X134738095Y-128738095D01*
X134761904Y-128690476D01*
X134785714Y-128666666D01*
X134833333Y-128642857D01*
X134928571Y-128642857D01*
X134976190Y-128666666D01*
X135809523Y-128976190D02*
X135809523Y-128714285D01*
X135785714Y-128666666D01*
X135738095Y-128642857D01*
X135642857Y-128642857D01*
X135595238Y-128666666D01*
X135809523Y-128952380D02*
X135761904Y-128976190D01*
X135642857Y-128976190D01*
X135595238Y-128952380D01*
X135571428Y-128904761D01*
X135571428Y-128857142D01*
X135595238Y-128809523D01*
X135642857Y-128785714D01*
X135761904Y-128785714D01*
X135809523Y-128761904D01*
X136047619Y-128642857D02*
X136047619Y-128976190D01*
X136047619Y-128690476D02*
X136071428Y-128666666D01*
X136119047Y-128642857D01*
X136190476Y-128642857D01*
X136238095Y-128666666D01*
X136261904Y-128714285D01*
X136261904Y-128976190D01*
X136714285Y-128976190D02*
X136714285Y-128476190D01*
X136714285Y-128952380D02*
X136666666Y-128976190D01*
X136571428Y-128976190D01*
X136523809Y-128952380D01*
X136500000Y-128928571D01*
X136476190Y-128880952D01*
X136476190Y-128738095D01*
X136500000Y-128690476D01*
X136523809Y-128666666D01*
X136571428Y-128642857D01*
X136666666Y-128642857D01*
X136714285Y-128666666D01*
X137333333Y-128642857D02*
X137333333Y-129142857D01*
X137333333Y-128666666D02*
X137380952Y-128642857D01*
X137476190Y-128642857D01*
X137523809Y-128666666D01*
X137547619Y-128690476D01*
X137571428Y-128738095D01*
X137571428Y-128880952D01*
X137547619Y-128928571D01*
X137523809Y-128952380D01*
X137476190Y-128976190D01*
X137380952Y-128976190D01*
X137333333Y-128952380D01*
X137857142Y-128976190D02*
X137809523Y-128952380D01*
X137785714Y-128904761D01*
X137785714Y-128476190D01*
X138261904Y-128976190D02*
X138261904Y-128714285D01*
X138238095Y-128666666D01*
X138190476Y-128642857D01*
X138095238Y-128642857D01*
X138047619Y-128666666D01*
X138261904Y-128952380D02*
X138214285Y-128976190D01*
X138095238Y-128976190D01*
X138047619Y-128952380D01*
X138023809Y-128904761D01*
X138023809Y-128857142D01*
X138047619Y-128809523D01*
X138095238Y-128785714D01*
X138214285Y-128785714D01*
X138261904Y-128761904D01*
X138428571Y-128642857D02*
X138619047Y-128642857D01*
X138500000Y-128476190D02*
X138500000Y-128904761D01*
X138523809Y-128952380D01*
X138571428Y-128976190D01*
X138619047Y-128976190D01*
X138976190Y-128952380D02*
X138928571Y-128976190D01*
X138833333Y-128976190D01*
X138785714Y-128952380D01*
X138761904Y-128904761D01*
X138761904Y-128714285D01*
X138785714Y-128666666D01*
X138833333Y-128642857D01*
X138928571Y-128642857D01*
X138976190Y-128666666D01*
X139000000Y-128714285D01*
X139000000Y-128761904D01*
X138761904Y-128809523D01*
X139428571Y-128976190D02*
X139428571Y-128476190D01*
X139428571Y-128952380D02*
X139380952Y-128976190D01*
X139285714Y-128976190D01*
X139238095Y-128952380D01*
X139214285Y-128928571D01*
X139190476Y-128880952D01*
X139190476Y-128738095D01*
X139214285Y-128690476D01*
X139238095Y-128666666D01*
X139285714Y-128642857D01*
X139380952Y-128642857D01*
X139428571Y-128666666D01*
X105047619Y-128952380D02*
X105119047Y-128976190D01*
X105238095Y-128976190D01*
X105285714Y-128952380D01*
X105309523Y-128928571D01*
X105333333Y-128880952D01*
X105333333Y-128833333D01*
X105309523Y-128785714D01*
X105285714Y-128761904D01*
X105238095Y-128738095D01*
X105142857Y-128714285D01*
X105095238Y-128690476D01*
X105071428Y-128666666D01*
X105047619Y-128619047D01*
X105047619Y-128571428D01*
X105071428Y-128523809D01*
X105095238Y-128500000D01*
X105142857Y-128476190D01*
X105261904Y-128476190D01*
X105333333Y-128500000D01*
X105619047Y-128976190D02*
X105571428Y-128952380D01*
X105547619Y-128904761D01*
X105547619Y-128476190D01*
X105880952Y-128976190D02*
X105833333Y-128952380D01*
X105809523Y-128928571D01*
X105785714Y-128880952D01*
X105785714Y-128738095D01*
X105809523Y-128690476D01*
X105833333Y-128666666D01*
X105880952Y-128642857D01*
X105952380Y-128642857D01*
X106000000Y-128666666D01*
X106023809Y-128690476D01*
X106047619Y-128738095D01*
X106047619Y-128880952D01*
X106023809Y-128928571D01*
X106000000Y-128952380D01*
X105952380Y-128976190D01*
X105880952Y-128976190D01*
X106190476Y-128642857D02*
X106380952Y-128642857D01*
X106261904Y-128476190D02*
X106261904Y-128904761D01*
X106285714Y-128952380D01*
X106333333Y-128976190D01*
X106380952Y-128976190D01*
X106523809Y-128952380D02*
X106571428Y-128976190D01*
X106666666Y-128976190D01*
X106714285Y-128952380D01*
X106738095Y-128904761D01*
X106738095Y-128880952D01*
X106714285Y-128833333D01*
X106666666Y-128809523D01*
X106595238Y-128809523D01*
X106547619Y-128785714D01*
X106523809Y-128738095D01*
X106523809Y-128714285D01*
X106547619Y-128666666D01*
X106595238Y-128642857D01*
X106666666Y-128642857D01*
X106714285Y-128666666D01*
X107333333Y-128976190D02*
X107333333Y-128642857D01*
X107333333Y-128738095D02*
X107357142Y-128690476D01*
X107380952Y-128666666D01*
X107428571Y-128642857D01*
X107476190Y-128642857D01*
X107714285Y-128976190D02*
X107666666Y-128952380D01*
X107642857Y-128928571D01*
X107619047Y-128880952D01*
X107619047Y-128738095D01*
X107642857Y-128690476D01*
X107666666Y-128666666D01*
X107714285Y-128642857D01*
X107785714Y-128642857D01*
X107833333Y-128666666D01*
X107857142Y-128690476D01*
X107880952Y-128738095D01*
X107880952Y-128880952D01*
X107857142Y-128928571D01*
X107833333Y-128952380D01*
X107785714Y-128976190D01*
X107714285Y-128976190D01*
X108309523Y-128642857D02*
X108309523Y-128976190D01*
X108095238Y-128642857D02*
X108095238Y-128904761D01*
X108119047Y-128952380D01*
X108166666Y-128976190D01*
X108238095Y-128976190D01*
X108285714Y-128952380D01*
X108309523Y-128928571D01*
X108476190Y-128642857D02*
X108666666Y-128642857D01*
X108547619Y-128476190D02*
X108547619Y-128904761D01*
X108571428Y-128952380D01*
X108619047Y-128976190D01*
X108666666Y-128976190D01*
X109023809Y-128952380D02*
X108976190Y-128976190D01*
X108880952Y-128976190D01*
X108833333Y-128952380D01*
X108809523Y-128904761D01*
X108809523Y-128714285D01*
X108833333Y-128666666D01*
X108880952Y-128642857D01*
X108976190Y-128642857D01*
X109023809Y-128666666D01*
X109047619Y-128714285D01*
X109047619Y-128761904D01*
X108809523Y-128809523D01*
X109476190Y-128976190D02*
X109476190Y-128476190D01*
X109476190Y-128952380D02*
X109428571Y-128976190D01*
X109333333Y-128976190D01*
X109285714Y-128952380D01*
X109261904Y-128928571D01*
X109238095Y-128880952D01*
X109238095Y-128738095D01*
X109261904Y-128690476D01*
X109285714Y-128666666D01*
X109333333Y-128642857D01*
X109428571Y-128642857D01*
X109476190Y-128666666D01*
X110309523Y-128976190D02*
X110309523Y-128714285D01*
X110285714Y-128666666D01*
X110238095Y-128642857D01*
X110142857Y-128642857D01*
X110095238Y-128666666D01*
X110309523Y-128952380D02*
X110261904Y-128976190D01*
X110142857Y-128976190D01*
X110095238Y-128952380D01*
X110071428Y-128904761D01*
X110071428Y-128857142D01*
X110095238Y-128809523D01*
X110142857Y-128785714D01*
X110261904Y-128785714D01*
X110309523Y-128761904D01*
X110547619Y-128642857D02*
X110547619Y-128976190D01*
X110547619Y-128690476D02*
X110571428Y-128666666D01*
X110619047Y-128642857D01*
X110690476Y-128642857D01*
X110738095Y-128666666D01*
X110761904Y-128714285D01*
X110761904Y-128976190D01*
X111214285Y-128976190D02*
X111214285Y-128476190D01*
X111214285Y-128952380D02*
X111166666Y-128976190D01*
X111071428Y-128976190D01*
X111023809Y-128952380D01*
X111000000Y-128928571D01*
X110976190Y-128880952D01*
X110976190Y-128738095D01*
X111000000Y-128690476D01*
X111023809Y-128666666D01*
X111071428Y-128642857D01*
X111166666Y-128642857D01*
X111214285Y-128666666D01*
X111833333Y-128642857D02*
X111833333Y-129142857D01*
X111833333Y-128666666D02*
X111880952Y-128642857D01*
X111976190Y-128642857D01*
X112023809Y-128666666D01*
X112047619Y-128690476D01*
X112071428Y-128738095D01*
X112071428Y-128880952D01*
X112047619Y-128928571D01*
X112023809Y-128952380D01*
X111976190Y-128976190D01*
X111880952Y-128976190D01*
X111833333Y-128952380D01*
X112357142Y-128976190D02*
X112309523Y-128952380D01*
X112285714Y-128904761D01*
X112285714Y-128476190D01*
X112761904Y-128976190D02*
X112761904Y-128714285D01*
X112738095Y-128666666D01*
X112690476Y-128642857D01*
X112595238Y-128642857D01*
X112547619Y-128666666D01*
X112761904Y-128952380D02*
X112714285Y-128976190D01*
X112595238Y-128976190D01*
X112547619Y-128952380D01*
X112523809Y-128904761D01*
X112523809Y-128857142D01*
X112547619Y-128809523D01*
X112595238Y-128785714D01*
X112714285Y-128785714D01*
X112761904Y-128761904D01*
X112928571Y-128642857D02*
X113119047Y-128642857D01*
X113000000Y-128476190D02*
X113000000Y-128904761D01*
X113023809Y-128952380D01*
X113071428Y-128976190D01*
X113119047Y-128976190D01*
X113476190Y-128952380D02*
X113428571Y-128976190D01*
X113333333Y-128976190D01*
X113285714Y-128952380D01*
X113261904Y-128904761D01*
X113261904Y-128714285D01*
X113285714Y-128666666D01*
X113333333Y-128642857D01*
X113428571Y-128642857D01*
X113476190Y-128666666D01*
X113500000Y-128714285D01*
X113500000Y-128761904D01*
X113261904Y-128809523D01*
X113928571Y-128976190D02*
X113928571Y-128476190D01*
X113928571Y-128952380D02*
X113880952Y-128976190D01*
X113785714Y-128976190D01*
X113738095Y-128952380D01*
X113714285Y-128928571D01*
X113690476Y-128880952D01*
X113690476Y-128738095D01*
X113714285Y-128690476D01*
X113738095Y-128666666D01*
X113785714Y-128642857D01*
X113880952Y-128642857D01*
X113928571Y-128666666D01*
D13*
X86960952Y-83211428D02*
X86560952Y-83211428D01*
X86560952Y-83059047D01*
X86580000Y-83020952D01*
X86599047Y-83001904D01*
X86637142Y-82982857D01*
X86694285Y-82982857D01*
X86732380Y-83001904D01*
X86751428Y-83020952D01*
X86770476Y-83059047D01*
X86770476Y-83211428D01*
X86922857Y-82582857D02*
X86941904Y-82601904D01*
X86960952Y-82659047D01*
X86960952Y-82697142D01*
X86941904Y-82754285D01*
X86903809Y-82792380D01*
X86865714Y-82811428D01*
X86789523Y-82830476D01*
X86732380Y-82830476D01*
X86656190Y-82811428D01*
X86618095Y-82792380D01*
X86580000Y-82754285D01*
X86560952Y-82697142D01*
X86560952Y-82659047D01*
X86580000Y-82601904D01*
X86599047Y-82582857D01*
X86751428Y-82278095D02*
X86770476Y-82220952D01*
X86789523Y-82201904D01*
X86827619Y-82182857D01*
X86884761Y-82182857D01*
X86922857Y-82201904D01*
X86941904Y-82220952D01*
X86960952Y-82259047D01*
X86960952Y-82411428D01*
X86560952Y-82411428D01*
X86560952Y-82278095D01*
X86580000Y-82240000D01*
X86599047Y-82220952D01*
X86637142Y-82201904D01*
X86675238Y-82201904D01*
X86713333Y-82220952D01*
X86732380Y-82240000D01*
X86751428Y-82278095D01*
X86751428Y-82411428D01*
X86751428Y-81706666D02*
X86751428Y-81573333D01*
X86960952Y-81516190D02*
X86960952Y-81706666D01*
X86560952Y-81706666D01*
X86560952Y-81516190D01*
X86960952Y-81173333D02*
X86560952Y-81173333D01*
X86941904Y-81173333D02*
X86960952Y-81211428D01*
X86960952Y-81287619D01*
X86941904Y-81325714D01*
X86922857Y-81344761D01*
X86884761Y-81363809D01*
X86770476Y-81363809D01*
X86732380Y-81344761D01*
X86713333Y-81325714D01*
X86694285Y-81287619D01*
X86694285Y-81211428D01*
X86713333Y-81173333D01*
X86694285Y-80811428D02*
X87018095Y-80811428D01*
X87056190Y-80830476D01*
X87075238Y-80849523D01*
X87094285Y-80887619D01*
X87094285Y-80944761D01*
X87075238Y-80982857D01*
X86941904Y-80811428D02*
X86960952Y-80849523D01*
X86960952Y-80925714D01*
X86941904Y-80963809D01*
X86922857Y-80982857D01*
X86884761Y-81001904D01*
X86770476Y-81001904D01*
X86732380Y-80982857D01*
X86713333Y-80963809D01*
X86694285Y-80925714D01*
X86694285Y-80849523D01*
X86713333Y-80811428D01*
X86941904Y-80468571D02*
X86960952Y-80506666D01*
X86960952Y-80582857D01*
X86941904Y-80620952D01*
X86903809Y-80640000D01*
X86751428Y-80640000D01*
X86713333Y-80620952D01*
X86694285Y-80582857D01*
X86694285Y-80506666D01*
X86713333Y-80468571D01*
X86751428Y-80449523D01*
X86789523Y-80449523D01*
X86827619Y-80640000D01*
M02*
