M48
; DRILL file {KiCad (5.1.0-0)} date 2019 May 07, Tuesday 01:35:29
; FORMAT={-:-/ absolute / metric / decimal}
; #@! TF.CreationDate,2019-05-07T01:35:29+02:00
; #@! TF.GenerationSoftware,Kicad,Pcbnew,(5.1.0-0)
; #@! TF.FileFunction,Plated,1,2,PTH
FMAT,2
METRIC
T1C0.400
T2C0.650
T3C1.000
T4C1.500
T5C1.750
%
G90
G05
T1
X88.25Y-88.5
X88.75Y-95.5
X89.75Y-90.5
X90.55Y-84.3
X90.75Y-121.5
X91.0Y-90.75
X91.25Y-125.25
X92.5Y-122.75
X92.75Y-78.5
X92.75Y-95.5
X92.75Y-119.5
X92.75Y-121.0
X93.75Y-91.0
X94.75Y-84.25
X95.377Y-89.027
X95.5Y-94.0
X95.625Y-120.85
X95.75Y-91.25
X96.0Y-75.25
X96.5Y-125.5
X96.725Y-109.225
X96.75Y-107.5
X96.75Y-111.0
X96.901Y-87.503
X97.0Y-80.25
X97.0Y-82.75
X97.0Y-85.25
X97.5Y-114.75
X97.791Y-113.341
X98.0Y-101.75
X98.0Y-104.75
X98.0Y-123.75
X98.75Y-107.0
X99.06Y-98.75
X99.75Y-87.5
X99.775Y-94.325
X100.175Y-92.9
X100.33Y-98.75
X100.457Y-89.346
X101.0Y-94.5
X101.25Y-119.0
X101.5Y-126.5
X102.25Y-114.0
X102.25Y-125.0
X103.53Y-120.53
X103.925Y-94.225
X104.1Y-121.725
X104.5Y-101.5
X104.75Y-120.5
X105.5Y-86.25
X106.25Y-118.75
X106.7Y-106.75
X106.75Y-100.5
X106.75Y-109.825
X106.925Y-91.875
X106.94Y-104.44
X107.25Y-112.5
X107.25Y-114.75
X107.647Y-103.733
X107.95Y-98.75
X108.24Y-92.663
X108.475Y-105.725
X108.475Y-109.45
X108.75Y-96.75
X109.25Y-94.0
X109.25Y-111.75
X110.0Y-114.75
X110.25Y-86.25
X110.25Y-107.625
X110.315Y-101.065
X110.697Y-102.947
X111.2Y-104.75
X111.25Y-110.25
X111.387Y-108.599
X111.5Y-94.25
X113.25Y-113.465
X113.284Y-87.884
X113.284Y-89.916
X114.2Y-96.75
X114.25Y-114.75
X114.5Y-86.25
X114.85Y-118.194
X115.0Y-94.25
X115.25Y-92.5
X115.25Y-117.0
X115.5Y-91.0
X116.0Y-111.5
X116.5Y-108.0
X116.75Y-127.0
X117.0Y-116.75
X117.25Y-124.75
X117.449Y-107.3
X117.5Y-111.5
X117.5Y-115.0
X122.25Y-100.5
X122.5Y-75.25
X123.0Y-125.75
X123.75Y-91.0
X124.5Y-100.75
X125.5Y-83.25
X125.5Y-88.5
X126.5Y-106.0
X127.0Y-126.25
X128.875Y-118.425
X129.375Y-111.55
X130.5Y-88.25
X132.75Y-105.75
X133.425Y-111.55
X134.5Y-86.0
X135.25Y-111.8
X136.25Y-111.75
X136.75Y-105.75
X140.5Y-105.75
X142.0Y-107.75
X142.25Y-109.25
X142.25Y-126.0
X142.75Y-107.0
X143.475Y-119.275
X144.25Y-120.75
X145.75Y-87.0
X146.12Y-112.37
X146.75Y-75.0
X147.0Y-103.0
X147.0Y-113.0
X147.2Y-119.275
X147.25Y-121.25
X147.5Y-94.25
X147.75Y-96.5
X148.0Y-114.25
X148.0Y-123.75
X148.25Y-99.75
X148.25Y-125.5
X148.5Y-103.0
X149.25Y-111.5
X150.0Y-115.0
X151.0Y-99.75
X151.25Y-115.25
X151.5Y-119.0
X152.0Y-111.75
X152.25Y-95.75
X153.0Y-123.75
X153.75Y-107.0
X100.881Y-105.972
X100.881Y-106.988
X100.881Y-108.004
X100.881Y-109.02
X100.881Y-110.036
X101.897Y-105.972
X101.897Y-106.988
X101.897Y-108.004
X101.897Y-109.02
X101.897Y-110.036
X102.913Y-105.972
X102.913Y-106.988
X102.913Y-108.004
X102.913Y-108.004
X102.913Y-109.02
X102.913Y-110.036
X103.929Y-105.972
X103.929Y-106.988
X103.929Y-108.004
X103.929Y-109.02
X103.929Y-110.036
X104.945Y-105.972
X104.945Y-106.988
X104.945Y-108.004
X104.945Y-109.02
X104.945Y-110.036
T2
X152.25Y-89.98
X152.25Y-91.25
X152.25Y-92.52
X152.25Y-93.79
T3
X105.2Y-92.51
X105.2Y-122.99
X107.74Y-122.99
X110.28Y-92.51
X110.28Y-122.99
X112.82Y-122.99
X115.36Y-122.99
X117.9Y-92.51
X117.9Y-122.99
X120.44Y-122.99
X122.98Y-122.99
X125.52Y-92.51
X125.52Y-122.99
X128.06Y-122.99
X130.6Y-92.51
X130.6Y-122.99
X133.14Y-122.99
X135.68Y-122.99
X138.22Y-92.51
X138.22Y-122.99
X140.76Y-122.99
X143.3Y-92.51
X143.3Y-122.99
T4
X88.75Y-75.0
X152.5Y-126.0
X89.5Y-126.0
X152.5Y-75.0
T5
X100.75Y-82.25
X108.37Y-82.25
X141.9Y-82.25
X149.52Y-82.25
T0
M30
